<?xml version="1.0" encoding="UTF-8"?>
<svg width="610" height="610" viewBox="0 0 610 610" xmlns="http://www.w3.org/2000/svg">
  <path d="M 0,300L294,300L0,298L229,299L12,296L217,298L3,293L218,298L6,293L219,298L10,293L220,298L13,293L221,298L16,293L222,298L20,293L223,298L23,293L224,298L27,293L225,298L30,293L226,298L33,293L227,298L37,293L228,298L3,292L229,298L20,292L269,299L28,292L270,299L1,291L271,299L10,291L272,299L18,291L273,299L27,291L274,299L0,290L305,300L16,290L277,299L0,289L230,297L5,288L223,296L19,286L224,296L3,285L225,296L6,285L226,296L10,285L227,296L14,285L228,296L17,285L229,296L2,284L230,296L0,283L270,298L9,283L271,298L0,282L306,300L0,281L292,299L1,277L293,299L10,276L294,299L10,274L295,299L0,273L274,297L4,272L232,293L0,271L228,292L6,269L229,292L0,268L230,292L4,268L231,292L8,268L232,292L3,267L233,292L4,267L229,291L0,264L230,291L4,264L231,291L7,264L290,298L1,261L291,298L5,259L292,298L6,259L234,290L4,256L293,298L5,256L235,289L6,253L294,298L0,252L234,288L1,249L235,288L5,249L295,298L0,248L233,287L4,246L234,287L2,245L235,287L1,244L236,287L5,243L291,297L0,242L235,286L3,240L236,286L2,239L237,286L3,239L292,297L4,239L235,285L4,236L236,285L3,235L237,285L0,234L293,297L1,234L235,284L1,231L236,284L5,231L237,284L0,229L294,297L1,229L236,283L2,226L237,283L2,225L238,283L3,224L295,297L0,223L249,285L3,219L292,296L0,218L307,300L0,217L296,297L0,216L250,284L2,213L293,296L6,214L249,283L5,210L250,283L0,206L294,296L4,207L250,282L5,203L251,282L2,202L249,281L2,199L295,296L0,198L251,281L2,195L252,281L0,194L250,280L0,191L293,295L2,190L296,296L0,189L253,280L7,189L251,279L0,183L252,279L6,185L294,295L1,183L253,279L1,181L251,278L4,179L252,278L2,176L253,278L2,174L295,295L0,173L254,278L3,174L252,277L1,170L253,277L2,168L254,277L1,165L255,277L0,162L296,295L7,165L294,294L1,160L255,276L11,161L256,276L1,156L305,299L0,155L255,275L0,150L256,275L1,149L297,295L0,148L257,275L1,147L256,274L0,141L257,274L0,138L258,274L1,137L294,293L0,135L296,294L1,135L256,272L3,133L258,273L5,134L257,272L2,129L259,273L4,130L258,272L3,125L295,293L5,126L259,272L0,119L297,294L1,119L257,270L3,117L259,271L0,115L258,270L3,113L260,271L0,111L259,270L4,110L296,293L1,108L260,270L7,109L259,269L7,105L261,270L1,100L298,294L0,99L295,292L0,98L259,268L0,94L261,269L2,95L260,268L1,90L262,269L0,89L297,293L2,90L261,268L0,87L260,267L5,86L262,268L1,81L296,292L0,80L263,268L9,84L262,267L1,74L295,291L0,73L263,267L2,72L262,266L1,67L298,293L0,66L264,267L1,66L263,266L7,69L262,265L0,59L297,292L4,62L264,266L0,58L263,265L3,59L262,264L1,54L296,291L0,53L265,266L2,54L264,265L1,49L295,290L0,48L265,265L0,44L306,299L4,47L263,263L5,47L262,262L1,40L266,265L0,39L265,264L6,43L264,263L6,42L263,262L0,33L298,292L7,39L266,264L1,30L297,291L0,29L296,290L7,32L295,289L1,24L264,261L7,29L263,260L0,22L262,259L4,25L261,258L4,21L267,263L3,20L266,262L9,25L265,261L1,17L264,260L8,23L263,259L1,16L262,258L8,22L261,257L1,15L260,256L2,12L268,263L1,11L267,262L12,21L266,261L4,13L265,260L16,24L264,259L9,17L263,258L2,10L262,257L16,23L261,256L10,17L260,255L3,10L259,254L19,25L258,253L0,3L268,262L0,1L299,292L0,0L298,291L1,0L296,289L2,0L269,262L6,0L229,222L7,0L229,221L11,0L258,250L12,0L267,259L13,0L269,261L26,13L230,221L14,0L228,218L31,14L257,248L37,20L258,249L42,25L259,250L21,3L260,251L27,9L261,252L33,15L262,253L39,21L263,254L21,2L264,255L28,9L265,256L34,15L266,257L41,22L267,258L25,5L268,259L33,13L269,260L40,20L270,261L23,0L294,286L25,0L295,287L26,0L296,288L28,0L297,289L30,0L298,290L33,0L299,291L34,0L271,260L43,5L292,283L44,4L293,284L48,6L294,285L47,2L295,286L49,1L296,287L54,3L297,288L55,4L292,282L58,3L298,289L59,4L293,283L60,1L294,284L62,2L299,290L67,8L295,285L70,9L291,280L67,1L300,291L68,2L296,286L69,3L292,281L70,0L293,282L71,0L297,287L72,1L294,283L77,1L298,288L78,2L295,284L78,0L292,280L79,0L289,276L83,1L293,281L84,2L299,289L85,3L291,278L94,10L294,282L93,7L297,286L90,0L300,290L91,1L295,283L94,0L298,287L97,4L296,284L98,2L294,281L104,4L299,288L102,1L297,285L104,2L295,282L104,1L293,279L104,0L291,276L105,1L277,255L108,0L290,274L109,1L294,280L110,2L296,283L109,0L298,286L111,2L300,289L110,0L291,275L113,0L293,278L121,11L295,281L119,6L297,284L117,0L299,287L121,2L301,290L120,0L306,298L121,0L298,285L123,1L295,280L126,0L300,288L128,3L297,283L129,4L294,278L132,4L296,281L131,1L299,286L133,4L295,279L135,2L298,284L139,4L301,289L137,0L300,287L140,0L299,285L144,3L298,283L150,11L297,281L146,1L296,279L153,12L295,277L148,1L294,275L153,4L301,288L151,0L300,286L152,0L299,284L153,0L298,282L154,1L296,278L154,0L295,276L155,1L293,272L155,0L282,250L156,0L282,249L160,1L294,273L160,0L296,277L161,1L297,279L161,0L298,281L162,1L299,283L162,0L300,285L163,1L301,287L163,0L295,274L167,1L296,276L172,10L297,278L173,10L298,280L171,3L299,282L172,2L300,284L174,2L301,286L176,1L302,288L176,0L299,281L180,2L300,283L183,9L298,278L182,0L301,285L185,7L299,280L187,3L302,287L186,0L300,282L188,4L298,277L190,2L299,279L191,3L301,284L193,8L300,281L195,2L302,286L195,1L301,283L199,6L300,280L202,10L299,277L203,3L302,285L202,0L301,282L203,0L300,279L204,1L299,276L204,0L298,273L205,2L297,270L205,1L288,243L208,2L289,245L208,1L298,272L208,0L301,281L209,2L302,284L209,1L303,287L209,0L298,271L215,10L299,274L214,5L300,277L216,9L301,280L218,12L302,283L217,4L303,286L216,0L301,279L220,2L302,282L222,1L303,285L223,4L302,281L225,0L307,299L226,0L303,284L228,3L302,280L229,3L301,276L232,12L300,272L232,1L303,283L232,0L300,271L235,1L301,274L236,3L302,278L236,0L303,282L237,0L304,286L238,3L303,281L243,6L304,285L242,1L303,280L244,4L302,275L246,1L304,284L246,0L303,279L247,4L302,274L249,1L303,278L250,3L304,283L250,2L303,277L254,8L304,282L253,2L303,276L256,3L304,281L256,2L304,280L259,5L304,279L262,3L305,285L262,2L304,278L265,4L305,284L265,1L307,298L265,0L305,283L267,0L305,282L270,6L305,281L272,6L305,280L274,8L305,279L275,3L305,278L279,4L307,297L279,0L305,275L280,1L305,274L281,1L305,273L282,1L305,272L285,6L306,283L286,5L307,296L286,0L306,281L287,0L306,280L288,0L306,279L289,1L306,278L290,4L306,277L291,9L306,276L292,15L306,275L292,3L306,274L293,11L306,273L293,0L306,272L294,11L306,271L294,1L306,270L295,14L306,269L295,4L306,268L296,20L306,267L296,11L306,266L296,2L306,265L297,20L306,264L297,12L306,263L297,5L306,262L298,26L306,261L298,19L306,260L298,12L306,259L298,4L306,258L299,30L305,225L299,28L305,224L299,24L305,223L299,21L305,222L299,17L305,221L299,14L305,220L299,10L305,219L299,6L305,218L299,3L305,217L302,22L306,232L302,0L307,282L303,0L307,279L304,0L307,273L305,0L307,261L306,0L307,231L307,0L308,221L310,0L308,231L312,0L308,262L313,0L308,268L314,0L308,272L315,0L308,275L316,0L308,278L317,0L308,280L318,0L308,281L319,0L309,264L321,18L309,265L322,6L309,266L322,14L309,267L323,4L309,268L323,14L309,269L324,5L309,270L324,15L309,271L325,8L309,272L326,3L309,273L326,14L309,274L327,10L309,275L328,7L309,276L329,6L309,277L330,6L309,278L331,7L309,279L332,9L309,280L333,0L310,271L336,2L310,272L337,2L310,273L338,4L310,274L339,6L310,275L341,0L310,276L342,0L308,294L342,2L310,278L345,6L310,279L345,7L311,273L349,0L308,295L349,1L311,275L353,3L311,276L355,3L311,277L357,3L311,278L359,0L308,296L359,2L312,274L363,3L312,275L365,4L312,276L368,2L312,277L370,3L309,292L369,8L313,274L375,2L313,275L376,0L308,297L376,1L313,276L379,2L309,293L379,3L314,273L384,1L314,274L384,2L315,271L387,2L314,275L387,3L310,290L386,7L315,272L391,1L309,294L391,2L315,273L391,6L316,270L395,3L315,274L396,2L310,291L397,0L311,288L399,2L316,272L396,14L317,269L403,2L316,273L404,0L317,270L404,1L318,267L404,2L319,264L407,1L317,271L407,2L310,292L408,0L309,295L409,0L308,298L409,1L317,272L410,3L319,267L413,3L318,270L412,9L312,287L415,7L311,290L417,2L318,271L416,5L319,269L420,2L313,285L422,0L310,293L421,3L312,288L424,1L320,268L428,2L313,286L428,4L311,291L429,2L314,284L431,4L309,296L433,0L312,289L434,2L321,268L436,5L313,287L439,4L310,294L441,0L315,283L444,2L311,292L445,0L312,290L447,1L313,288L449,1L314,286L450,1L315,284L451,1L316,282L452,0L317,280L452,1L318,278L453,0L325,264L455,0L329,256L458,0L329,257L458,1L326,263L459,0L319,277L459,1L317,281L460,0L316,283L460,1L315,285L461,0L314,287L461,1L313,289L462,1L312,291L464,0L311,293L467,0L310,295L464,6L316,284L466,10L315,286L473,1L309,297L472,3L314,288L474,0L318,281L476,2L313,290L475,4L317,283L477,6L316,285L482,0L312,292L481,2L315,287L483,2L318,282L485,0L321,277L488,0L320,279L486,4L317,284L487,3L314,289L489,2L311,294L486,7L316,286L494,3L313,291L496,0L315,288L493,9L317,285L503,0L308,299L504,0L310,296L506,1L312,293L507,0L316,287L506,2L327,271L511,0L325,274L510,2L323,277L512,0L321,280L512,1L319,283L514,0L317,286L516,0L315,289L519,0L313,292L518,2L318,285L522,2L316,288L526,0L311,295L525,2L314,291L529,0L317,287L530,0L320,283L530,1L323,279L531,0L326,275L532,3L324,278L534,1L321,282L533,3L318,286L535,2L315,290L538,2L312,294L539,1L319,285L543,0L316,289L540,4L320,284L543,2L324,279L548,0L321,283L546,3L317,288L549,0L313,293L546,4L322,282L548,6L318,287L553,0L309,298L554,0L314,292L554,3L319,286L556,1L320,285L561,1L315,291L562,0L321,284L563,4L316,290L564,3L323,282L564,7L317,289L571,0L310,297L572,0L318,288L568,6L319,287L575,1L320,286L579,1L311,296L580,0L321,285L571,10L322,284L580,2L323,283L577,9L312,295L586,0L313,294L589,0L314,293L592,0L315,292L594,0L316,291L596,0L317,290L597,0L318,289L598,0L319,288L599,0L321,286L600,0L323,284L601,0L325,282L602,0L328,279L603,0L333,274L604,0L341,266L605,0L355,252L609,0L341,267L601,12L340,268L592,21L339,269L583,30L338,270L574,39L337,271L565,48L336,272L601,13L335,273L590,24L334,274L579,35L333,275L608,7L332,276L596,19L331,277L584,31L330,278L606,10L329,279L593,23L328,280L579,37L327,281L595,22L326,282L608,10L325,283L591,27L324,284L599,20L323,285L604,16L322,286L606,15L321,287L604,18L320,288L599,24L319,289L609,16L318,290L596,30L317,291L608,21L316,292L598,33L315,293L609,23L325,284L603,32L314,294L602,33L323,286L605,35L313,295L604,36L321,288L609,37L320,289L605,42L312,296L604,43L319,290L606,43L325,285L608,45L318,291L607,46L324,286L604,53L317,292L607,51L311,297L606,52L322,288L605,58L316,293L609,55L321,289L607,58L326,285L609,60L325,286L606,63L320,290L609,62L315,294L608,63L324,287L609,66L319,291L608,69L310,298L607,70L314,295L606,74L318,292L607,74L322,289L609,73L326,286L608,74L333,281L607,78L329,284L609,77L325,287L609,78L321,290L609,80L317,293L605,83L324,288L608,85L313,296L607,86L323,289L608,90L316,294L607,91L319,292L609,92L322,290L608,94L325,288L608,95L328,286L609,95L331,284L607,97L334,282L609,96L337,280L608,100L333,283L607,101L324,289L609,100L321,291L608,101L318,293L609,101L315,295L608,103L312,297L607,104L326,288L605,109L323,290L603,112L320,292L609,109L309,299L608,110L317,294L606,113L322,291L608,117L314,296L605,119L319,293L607,119L324,290L606,120L329,287L606,123L326,289L606,124L321,292L609,124L316,295L604,127L323,291L605,128L325,290L605,131L318,294L605,133L311,298L609,131L320,293L609,132L322,292L606,136L324,291L602,141L313,297L608,138L326,290L604,143L315,296L608,141L317,295L608,143L319,294L608,144L321,293L608,145L323,292L609,145L325,291L608,146L327,290L609,146L329,289L608,147L333,287L609,147L339,284L608,148L347,280L609,148L354,277L609,151L344,282L608,152L338,285L609,152L334,287L608,153L330,289L609,153L328,290L608,154L326,291L609,154L324,292L608,155L322,293L608,156L320,294L608,157L318,295L608,159L316,296L602,162L327,291L608,162L314,297L606,163L323,293L605,168L321,294L608,167L312,298L609,167L319,295L605,171L326,292L607,173L324,293L607,174L317,296L605,175L322,294L608,176L327,292L608,177L332,290L605,181L315,297L608,180L310,299L609,180L328,292L602,186L323,294L604,187L318,296L607,186L326,293L607,189L321,295L609,190L313,298L607,191L324,294L599,194L327,293L607,194L316,297L608,194L319,296L609,195L322,295L609,196L325,294L608,197L328,293L609,197L331,292L607,198L334,291L608,198L337,290L609,198L343,288L608,201L341,289L609,201L335,291L607,202L332,292L608,202L329,293L609,202L326,294L607,203L323,295L609,203L320,296L609,204L317,297L607,207L314,298L608,207L324,295L603,212L321,296L609,212L311,299L607,213L318,297L607,214L325,295L604,215L329,294L603,218L322,296L604,220L315,298L608,219L319,297L608,221L323,296L608,222L327,295L607,223L331,294L608,223L335,293L609,223L336,293L608,226L332,294L609,226L328,295L606,227L324,296L608,227L320,297L609,228L316,298L605,229L325,296L608,231L312,299L609,231L321,297L606,233L326,296L606,236L317,298L607,236L322,297L609,237L327,296L608,238L332,295L607,241L328,296L608,241L323,297L606,242L318,298L609,243L313,299L604,244L324,297L606,247L319,298L607,247L325,297L607,248L331,296L605,251L326,297L607,251L320,298L606,252L314,299L607,252L321,298L605,255L328,297L604,258L322,298L607,258L315,299L608,258L323,298L606,263L316,299L607,263L325,298L609,266L308,300L609,267L327,298L605,270L318,299L606,270L319,299L602,273L320,299L603,275L321,299L601,277L322,299L609,278L323,299L600,280L324,299L603,281L325,299L604,282L326,299L604,283L327,299L609,286L309,300L609,287L333,299L595,288L334,299L607,288L335,299L609,291L310,300L609,292L311,300L609,294L312,300L609,295L313,300L609,296L314,300L609,297L316,300L609,298L319,300L609,299L330,300L609,300L403,301L609,303L379,301L609,304L364,301L609,305L355,301L609,306L348,301L609,307L343,301L609,308L339,301L609,309L336,301L609,310L333,301L609,311L331,301L609,312L329,301L609,313L328,301L609,314L326,301L609,315L325,301L609,316L324,301L609,317L323,301L609,318L322,301L609,320L321,301L609,321L320,301L609,323L319,301L609,326L318,301L609,328L317,301L609,331L316,301L609,332L325,302L603,334L324,302L609,336L315,301L607,336L323,302L606,339L322,302L609,341L314,301L605,341L321,302L606,342L327,303L605,345L320,302L609,348L313,301L604,348L319,302L605,349L325,303L609,350L330,304L605,352L324,303L608,354L318,302L602,353L323,303L608,356L328,304L609,359L312,301L608,359L317,302L605,359L322,303L609,360L327,304L608,360L331,305L608,363L326,304L608,364L321,303L607,366L316,302L606,366L325,304L603,368L320,303L607,369L324,304L605,370L328,305L593,368L332,306L609,375L311,301L608,375L315,302L607,375L338,308L608,378L334,307L607,378L330,306L608,379L326,305L608,380L322,304L608,382L318,303L607,382L325,305L608,386L314,302L607,386L324,305L603,389L317,303L609,391L320,304L608,393L323,305L607,394L326,306L607,395L329,307L608,396L332,308L609,397L335,309L608,397L338,310L607,397L341,311L609,398L344,312L607,400L325,306L609,401L316,303L608,401L313,302L609,402L310,301L609,403L330,308L609,406L327,307L609,407L324,306L608,408L321,305L602,408L318,304L607,410L326,307L607,413L323,306L608,414L315,303L605,413L320,305L609,417L325,307L606,417L330,309L606,420L327,308L608,421L322,306L607,421L317,304L609,423L312,302L608,423L324,307L607,426L319,305L609,427L326,308L606,429L321,306L608,431L314,303L609,432L323,307L602,430L325,308L607,435L316,304L609,436L318,305L609,439L320,306L609,441L322,307L608,442L324,308L608,443L326,309L609,444L328,310L609,445L330,311L608,445L332,312L609,446L334,313L608,446L338,315L609,447L342,317L608,447L346,319L609,448L352,322L609,451L345,319L608,451L327,310L609,452L321,307L608,452L319,306L609,453L317,305L608,453L315,304L609,454L313,303L609,456L311,302L608,456L328,311L607,459L326,310L605,459L324,309L609,462L309,301L609,463L320,307L602,463L318,306L609,467L325,310L608,470L316,305L606,469L323,309L605,472L321,308L605,474L314,304L608,476L319,307L608,478L324,310L605,477L329,313L605,480L327,312L609,483L322,309L609,484L317,306L607,483L325,311L607,486L312,303L608,487L320,308L607,487L323,310L608,492L315,305L609,493L318,307L607,494L321,309L608,496L324,311L607,496L327,313L609,498L330,315L608,498L333,317L609,499L339,321L607,501L334,318L608,502L328,314L609,503L325,312L607,502L322,310L609,504L319,308L609,505L316,306L609,507L313,304L607,506L323,311L605,509L320,309L609,514L310,302L609,515L317,307L603,511L324,312L607,517L321,310L603,517L314,305L607,520L318,308L607,522L322,311L606,522L326,314L608,524L330,317L609,525L331,318L607,527L327,315L609,529L323,312L608,529L319,309L608,531L315,306L609,532L324,313L607,534L320,310L608,537L311,303L609,538L316,307L609,540L321,311L607,539L326,315L608,540L327,316L607,543L322,312L605,543L317,308L600,539L323,313L605,548L312,304L609,552L325,315L607,554L319,310L608,555L326,316L604,555L320,311L603,555L313,305L609,561L321,312L605,559L322,313L604,562L314,306L609,567L323,314L605,564L324,315L609,571L315,307L609,572L316,308L609,575L317,309L609,578L318,310L609,580L319,311L609,582L320,312L609,584L321,313L609,585L322,314L609,586L323,315L609,587L324,316L609,588L325,317L609,589L326,318L609,590L328,320L609,591L330,322L609,592L332,324L609,593L335,327L609,594L338,330L609,595L343,335L609,596L349,341L609,597L357,349L609,598L373,365L609,602L361,354L609,603L337,330L609,604L328,321L609,605L323,316L609,606L320,313L609,607L318,311L609,608L317,310L609,609L314,307L580,583L313,306L598,604L312,305L588,597L311,304L587,596L325,319L586,599L324,318L582,596L323,317L588,603L310,303L587,602L321,315L582,601L320,314L580,601L319,313L583,607L318,312L581,608L317,311L580,607L309,302L579,606L316,310L574,604L322,317L569,603L315,309L574,609L321,316L567,605L320,315L569,609L314,308L568,608L319,314L567,609L323,319L560,605L318,313L558,604L313,307L562,609L317,312L558,608L321,317L555,606L325,322L554,609L320,316L552,607L316,311L553,609L312,306L552,608L319,315L545,606L315,310L543,607L308,301L544,609L321,318L542,607L324,322L540,609L311,305L539,608L314,309L538,607L317,313L537,606L323,321L539,609L325,324L534,607L322,320L533,607L319,316L533,609L316,312L530,609L313,308L529,608L318,315L526,605L320,318L524,607L315,311L521,603L317,314L520,608L310,304L519,607L312,307L516,607L314,310L516,609L316,313L514,607L318,316L515,609L320,319L514,608L322,322L513,607L326,328L514,609L327,330L510,608L325,327L509,607L323,324L510,609L321,321L508,607L319,318L507,607L317,315L506,607L315,312L505,609L313,309L501,603L318,317L501,609L311,306L500,608L316,314L498,605L319,319L492,603L317,316L495,608L320,321L492,609L318,318L491,608L315,313L491,609L312,308L488,609L309,303L487,608L313,310L482,604L317,317L481,603L318,319L480,607L314,312L481,609L315,314L474,603L310,305L477,609L316,316L474,605L317,318L469,602L311,307L472,608L312,309L470,609L313,311L468,608L314,313L467,608L315,315L466,608L316,317L466,609L317,319L465,608L318,321L465,609L320,325L464,608L322,329L464,609L325,335L463,608L330,345L463,609L330,346L460,609L325,336L459,608L322,330L459,609L320,326L458,608L318,322L457,608L316,318L457,609L315,316L456,608L314,314L455,608L313,312L454,609L312,310L452,609L311,308L449,603L318,323L449,609L310,306L448,608L315,317L447,607L318,324L441,602L317,322L442,605L313,313L442,609L309,304L440,605L312,311L439,606L317,323L434,605L311,309L435,608L317,324L431,605L318,327L429,608L312,312L427,606L310,307L428,609L317,325L426,605L318,328L422,602L316,323L422,607L311,310L421,609L308,302L420,609L312,313L419,607L317,327L415,599L318,330L415,608L316,325L412,602L309,305L414,608L310,308L412,607L311,311L412,609L312,314L411,607L315,323L411,609L317,329L410,607L320,339L408,609L318,333L407,607L317,330L407,608L316,327L407,609L315,324L405,609L312,315L403,607L311,312L401,608L310,309L401,609L312,316L396,607L309,306L396,608L311,313L395,606L313,320L394,603L314,324L390,603L310,310L391,607L311,314L389,607L313,322L387,607L314,326L387,609L314,327L384,608L311,315L384,609L310,311L383,607L309,307L382,608L308,303L382,609L312,320L379,608L311,316L377,607L310,312L376,603L311,317L373,605L309,308L373,606L310,313L372,609L311,318L371,609L312,323L370,606L312,324L368,609L311,319L367,607L310,314L366,606L309,309L366,607L311,320L363,607L310,315L363,609L308,304L362,609L309,310L360,607L310,316L359,605L311,322L359,606L311,323L356,604L310,317L355,605L309,311L354,599L310,318L351,604L308,305L351,609L310,320L348,608L309,313L348,609L310,321L345,607L309,314L344,607L308,306L344,609L309,315L342,604L309,316L339,609L308,307L338,609L309,318L334,599L308,308L334,609L308,309L331,609L308,310L329,609L308,311L327,609L308,312L325,609L308,313L324,609L308,314L322,609L308,315L321,609L308,317L320,609L308,318L319,609L308,319L318,609L308,321L317,609L308,323L316,609L308,326L315,609L308,329L314,609L308,333L313,609L308,339L312,609L308,347L311,609L308,359L310,609L308,403L309,609L307,403L306,609L307,340L305,609L307,328L304,609L307,322L303,609L307,318L302,609L307,315L301,609L307,313L300,609L307,312L299,609L307,310L298,609L307,309L296,609L307,308L295,609L307,307L292,609L307,306L292,608L306,323L290,594L306,322L289,609L307,305L289,606L306,320L287,597L306,319L285,609L307,304L284,609L306,316L281,604L306,315L279,605L306,314L277,609L307,303L276,609L306,312L274,606L305,320L271,607L306,311L271,606L305,319L268,608L305,318L268,602L306,310L267,609L305,317L263,608L305,316L263,606L306,309L261,609L307,302L260,609L305,315L261,601L304,321L258,602L306,308L257,608L305,314L257,605L304,320L254,607L304,319L253,606L305,313L254,600L304,318L250,607L306,307L250,606L305,312L248,608L304,317L247,609L303,322L247,607L302,326L244,609L303,321L244,607L304,316L243,607L305,311L240,609L306,306L240,608L304,315L239,609L303,319L236,609L305,310L236,608L304,314L234,609L303,318L233,609L302,322L233,607L301,326L233,606L300,330L230,607L301,325L230,606L302,321L229,609L303,317L229,608L304,313L228,609L305,309L227,606L306,305L226,609L303,316L222,609L304,312L223,605L302,319L219,607L303,315L219,605L305,308L218,608L302,318L216,603L304,311L215,606L303,314L212,609L302,317L209,609L307,301L209,608L299,326L211,601L298,329L210,595L306,304L206,607L305,307L205,608L303,313L205,607L279,383L202,607L297,330L201,608L298,327L201,607L299,324L200,608L300,321L199,609L301,318L198,609L302,315L197,607L303,312L196,609L300,320L194,607L304,309L195,604L301,317L191,606L302,314L188,609L305,306L188,608L303,311L187,606L301,316L185,609L299,321L186,606L298,323L182,608L300,318L182,606L302,313L179,609L304,308L180,606L301,315L179,604L298,322L175,607L300,317L175,606L303,310L174,608L299,319L171,608L306,303L170,609L301,314L168,608L300,316L164,608L305,305L163,609L304,307L160,609L303,309L159,608L302,311L158,608L301,313L157,608L300,315L156,609L299,317L156,608L272,371L152,608L272,370L150,608L272,369L147,609L272,368L147,608L299,316L146,608L300,314L145,608L301,312L143,608L302,310L140,609L303,308L142,605L271,366L136,609L304,306L136,608L300,313L134,607L270,366L131,607L270,365L131,606L301,311L127,609L305,304L127,608L302,309L125,607L270,362L119,608L300,312L117,607L303,307L116,608L269,361L112,608L301,310L111,609L269,360L113,604L268,361L108,607L269,359L113,599L268,360L104,608L269,358L101,609L302,308L102,607L304,305L100,608L306,302L99,609L268,358L99,607L267,359L101,599L268,357L94,609L267,358L91,608L268,356L95,601L301,309L90,608L268,355L84,608L303,306L83,609L268,354L88,601L267,355L78,609L268,353L80,606L267,354L76,606L268,352L72,608L302,307L71,609L268,351L75,601L267,352L65,609L305,303L67,606L267,351L66,605L266,352L63,607L265,353L58,609L267,350L66,599L266,351L60,605L265,352L53,609L267,349L56,605L266,350L55,605L265,351L48,609L304,304L51,605L267,348L50,606L266,349L49,606L265,350L43,608L267,347L42,609L266,348L43,603L303,305L42,604L267,346L37,608L266,347L38,606L265,348L39,604L264,349L32,608L302,306L31,609L267,345L31,608L266,346L33,605L265,347L36,601L264,348L30,607L263,349L30,603L268,343L29,604L267,344L33,599L266,345L26,606L265,346L31,600L264,347L25,606L263,348L30,600L262,349L18,609L268,342L28,598L267,343L21,605L266,344L30,595L265,345L23,602L264,346L16,609L263,347L26,598L262,348L20,604L261,349L31,592L260,350L11,609L268,341L26,593L267,342L19,600L266,343L12,607L265,344L31,587L264,345L24,594L263,346L18,600L262,347L11,607L261,348L33,584L260,349L27,590L259,350L21,596L258,351L15,602L257,352L9,608L256,353L4,609L268,340L0,609L259,348L0,605L268,339L0,603L283,324L0,602L262,344L4,594L263,343L11,587L264,342L18,580L265,341L25,573L266,340L2,595L267,339L10,587L268,338L11,586L256,349L2,591L257,348L8,585L258,347L14,579L259,346L0,592L260,345L7,585L261,344L13,579L262,343L1,590L263,342L5,586L282,324L17,574L283,323L0,590L268,337L4,585L260,344L0,585L261,343L6,579L262,342L0,584L263,341L7,577L264,340L1,582L265,339L8,575L266,338L4,578L267,337L0,581L303,304L4,577L283,322L9,568L284,321L0,573L304,303L4,569L269,334L7,566L264,338L5,564L265,337L0,568L281,323L4,563L282,322L2,563L283,321L0,563L284,320L1,562L266,335L1,558L267,334L0,558L305,302L0,557L282,321L5,548L283,320L1,549L284,319L4,544L285,318L0,547L281,321L4,539L282,320L2,538L283,319L2,535L284,318L2,532L285,317L3,531L281,320L0,530L286,316L1,529L283,318L1,526L280,320L6,519L284,317L3,521L281,319L1,519L285,316L0,519L306,301L1,518L282,318L12,507L286,315L2,514L283,317L3,512L280,319L9,504L284,316L6,506L281,318L11,502L278,320L0,506L285,315L1,505L282,317L2,504L271,324L0,502L280,318L1,501L283,316L0,501L286,314L3,499L278,319L6,494L281,317L3,495L284,315L0,496L287,313L1,495L282,316L0,492L285,314L3,490L280,317L3,487L283,315L1,486L286,313L4,484L284,314L3,479L287,312L1,479L304,302L0,479L285,313L2,477L283,314L2,473L288,311L0,474L286,312L0,472L284,313L8,466L282,314L4,467L280,315L1,465L287,311L10,460L285,312L10,459L283,313L16,455L281,314L9,458L279,315L4,460L273,318L8,454L288,310L0,458L286,311L1,457L284,312L0,457L280,314L1,456L274,317L0,456L270,319L1,455L258,325L1,452L267,320L0,452L273,317L1,451L281,313L0,451L285,311L1,450L287,310L0,450L289,309L1,449L274,316L15,439L278,314L16,438L280,313L2,444L282,312L11,439L284,311L7,440L286,310L7,439L288,309L0,442L281,312L5,436L283,311L2,436L285,310L5,433L287,309L5,431L289,308L0,433L284,310L2,428L286,309L1,426L288,308L0,424L305,301L1,423L290,307L0,423L282,310L3,419L287,308L0,420L284,309L1,416L289,307L6,414L286,308L1,414L283,309L1,410L288,307L12,406L285,308L9,406L282,309L4,407L279,310L1,405L290,306L0,405L287,307L2,404L284,308L1,404L281,309L0,404L275,311L2,403L271,312L0,401L277,310L2,400L280,309L1,400L283,308L0,400L286,307L2,399L289,306L1,399L279,309L1,396L282,308L8,393L285,307L8,392L288,306L0,393L291,305L2,392L284,307L6,388L287,306L2,387L290,305L1,387L286,306L9,383L282,307L3,382L289,305L2,382L285,306L10,379L281,307L2,378L288,305L1,378L284,306L0,378L280,307L3,377L279,307L0,375L283,306L3,374L287,305L1,374L291,304L0,374L282,306L5,370L286,305L8,368L290,304L3,369L285,305L0,366L289,304L4,365L284,305L3,362L288,304L2,362L283,305L1,362L282,305L3,359L287,304L0,359L292,303L4,358L286,304L1,355L291,303L0,355L285,304L0,352L290,303L5,351L284,304L1,349L289,303L0,349L288,303L3,346L287,303L0,342L293,302L2,341L292,302L5,338L291,302L2,336L290,302L1,334L289,302L3,332L288,302L6,330L287,302L1,329L286,302L8,327L285,302L6,326L284,302L5,325L283,302L4,324L282,302L5,323L281,302L0,320L293,301L13,319L292,301L9,318L291,301L7,317L290,301L8,316L289,301L10,315L288,301L15,314L287,301L0,314L286,301L8,313L285,301L18,312L284,301L5,312L283,301L19,311L281,301L23,310L280,301L13,310L279,301L2,310L278,301L23,309L277,301L13,309L276,301L4,309L275,301L29,308L274,301L20,308L273,301L12,308L272,301L3,308L271,301L34,307L270,301L26,307L269,301L19,307L268,301L11,307L225,302L10,307L224,302L7,307L223,302L3,307L222,302L0,304L228,301L0,301Z" fill="#000000" stroke="none"/>
  <path d="M 296,174L301,174L297,172L301,173L300,169L301,172L303,169L302,173L304,169L303,173L306,171L302,174L307,172L303,174L307,174L303,175L305,179L302,175L304,179L302,176L299,179L301,175L298,179L300,175L296,175Z" fill="#000000" stroke="none"/>
  <path d="M 222,247L227,247L223,243L228,247L225,241L228,246L226,241L228,245L229,241L229,247L230,241L230,246L235,243L230,247L236,245L232,247L236,248L230,248L235,251L229,248L235,252L230,249L234,253L230,250L232,255L229,249L229,255L228,251L226,255L228,250L225,254L228,249L224,254L227,250L222,252L227,249L222,249L228,248L222,248Z" fill="#000000" stroke="none"/>
  <path d="M 274,288L280,288L275,284L281,288L276,284L281,287L278,281L282,288L279,281L282,287L281,281L282,286L284,281L283,287L286,281L283,288L286,282L284,287L289,284L284,288L290,284L285,288L291,288L283,289L291,289L286,290L291,292L284,290L290,294L285,291L288,296L284,291L287,297L283,290L286,297L283,291L284,297L283,292L281,297L282,291L279,297L282,290L277,296L281,290L275,294L280,290L274,292L279,290L274,289L282,289Z" fill="#000000" stroke="none"/>
  <path d="M 47,493L52,493L48,490L53,493L49,490L53,492L51,483L54,493L52,480L54,492L55,478L55,491L58,484L55,492L59,487L55,493L60,489L56,493L61,491L57,493L62,494L55,494L64,499L56,495L64,501L57,496L62,503L56,496L61,503L55,495L60,503L55,496L57,503L55,497L54,503L54,496L53,503L54,495L52,503L53,496L49,503L52,497L45,503L53,495L44,503L54,494L44,501L52,495L46,498L51,495L46,495L53,494L47,494Z" fill="#000000" stroke="none"/>
  <path d="M 322,494L337,494L323,493L334,493L325,490L335,493L326,489L336,493L327,488L335,492L330,486L338,494L332,486L337,492L334,486L337,491L337,485L338,493L338,485L339,491L342,485L339,492L344,485L339,493L346,486L341,492L349,488L340,493L348,489L341,493L350,490L342,493L353,493L339,494L354,494L344,495L355,497L341,495L353,501L340,495L352,501L341,496L346,501L339,495L345,501L339,496L341,501L339,497L338,501L338,495L337,501L337,496L331,501L337,495L330,501L335,496L323,501L336,495L321,501L335,495L322,499L334,495L321,498L333,495L322,495Z" fill="#000000" stroke="none"/>
  <path d="M 106,503L119,503L106,500L117,502L108,495L118,502L108,494L117,501L109,494L117,500L111,491L118,501L112,492L118,500L114,490L119,502L116,489L119,501L117,489L119,500L118,489L119,498L121,489L120,499L122,489L120,500L123,489L120,501L126,490L120,502L126,491L121,501L128,492L122,500L130,494L122,501L131,495L121,502L130,496L122,502L132,498L123,502L133,501L120,503L133,502L121,503L133,503L124,504L133,506L123,504L132,507L122,504L132,510L121,504L131,510L122,505L131,512L122,506L129,514L121,505L128,515L120,504L126,514L121,506L124,517L120,505L123,517L120,506L122,517L120,507L121,517L119,508L118,517L119,506L117,517L119,505L114,516L119,504L113,516L118,505L111,514L117,506L109,512L117,505L108,511L118,504L108,510L117,504L109,507L116,504L106,504Z" fill="#000000" stroke="none"/>
  <path d="M 558,513L570,513L559,509L571,513L560,508L570,512L562,506L569,511L565,505L571,512L567,506L571,511L571,505L572,513L572,505L573,510L575,505L573,511L577,505L573,512L578,505L574,511L583,505L574,512L586,506L573,513L586,508L574,513L586,511L575,513L586,512L577,513L585,515L575,514L585,516L574,514L583,519L573,514L581,519L574,515L580,520L574,516L578,522L573,515L575,523L573,517L572,523L572,514L571,523L571,516L566,523L571,515L565,523L570,516L563,521L570,515L561,521L571,514L560,520L569,515L560,517L570,514L559,517L569,514L558,514Z" fill="#000000" stroke="none"/>
  <path d="M 232,512L239,512L233,509L240,512L235,507L241,512L238,507L241,511L240,507L241,510L243,507L242,511L245,507L242,512L251,507L243,512L251,509L244,512L251,511L244,513L251,514L243,513L250,516L242,513L249,517L243,514L245,519L242,514L244,519L242,515L240,519L241,514L239,519L240,515L235,519L241,513L234,517L239,514L232,515L240,513L232,513Z" fill="#000000" stroke="none"/>
</svg>