<?xml version="1.0" encoding="UTF-8"?>
<svg width="610" height="610" viewBox="0 0 610 610" xmlns="http://www.w3.org/2000/svg">
  <path d="M 411,75L417,75L411,71L418,75L412,71L417,74L414,68L418,74L417,68L418,73L418,68L419,73L422,68L419,74L422,69L420,74L426,72L419,75L426,73L420,75L426,75L421,76L426,78L420,76L424,81L419,76L423,81L419,77L420,83L418,78L417,83L418,77L416,83L418,76L415,82L417,77L412,79L417,76L411,79L416,76L411,76Z" fill="#000000" stroke="none"/>
  <path d="M 247,181L289,181L249,178L290,181L250,177L291,181L251,174L292,181L254,174L288,180L256,171L289,180L257,169L290,180L255,168L293,181L256,166L291,180L259,165L289,179L258,164L288,178L261,162L290,179L261,159L292,180L262,159L291,179L263,156L290,178L264,155L288,176L264,154L287,175L266,152L289,176L266,151L290,177L267,151L291,178L267,150L292,179L268,150L290,176L269,147L293,180L270,145L292,178L272,143L291,176L273,143L290,174L274,139L291,175L275,140L292,177L276,137L293,179L276,136L292,176L278,137L292,175L280,133L293,178L280,131L292,174L282,128L293,177L283,127L293,176L284,125L293,175L286,123L293,174L287,121L293,173L288,120L293,171L289,119L293,169L290,117L293,165L291,116L293,160L294,112L294,177L295,110L294,180L297,110L295,169L300,116L295,170L300,121L295,171L301,118L295,172L302,117L295,173L303,118L295,174L303,121L294,181L304,118L295,176L307,127L295,177L308,124L296,174L310,130L295,178L311,128L296,175L311,129L297,173L313,131L296,176L313,132L297,174L315,134L295,179L315,135L296,177L316,135L297,175L316,136L298,174L318,139L297,176L319,140L296,178L319,141L297,177L322,145L295,180L320,148L296,179L368,99L297,178L369,99L298,177L367,103L299,176L380,94L314,161L383,95L311,165L383,96L308,168L384,96L306,170L385,96L304,172L385,97L303,173L386,97L302,174L386,98L301,175L387,99L300,176L388,100L299,177L388,103L298,178L384,107L303,174L388,107L302,175L388,108L297,179L388,109L301,176L388,110L305,173L386,112L304,174L375,123L300,177L374,124L303,175L374,128L296,180L374,129L301,177L370,137L298,179L371,137L300,178L369,140L302,177L369,141L304,176L368,142L306,175L366,146L305,176L367,146L303,177L366,147L301,178L365,148L299,179L364,150L297,180L363,151L302,178L359,156L300,179L357,157L303,178L359,159L295,181L357,161L302,179L351,166L299,180L352,166L300,180L350,169L301,180L348,172L296,181L349,172L297,181L346,176L298,181L345,177L299,181L344,178L300,181L345,179L302,181L345,180L308,181L347,183L308,182L348,184L304,182L348,185L302,182L349,186L301,182L349,187L300,182L350,188L299,182L351,190L298,182L351,193L297,182L348,193L301,183L345,195L300,183L344,197L296,182L343,197L299,183L344,198L301,184L340,200L298,183L339,200L300,184L338,201L302,185L336,203L299,184L335,203L297,183L333,205L295,182L332,205L298,184L330,205L299,185L326,207L296,183L328,209L297,184L326,210L298,185L325,210L300,187L325,211L301,189L322,212L299,187L321,212L298,186L321,213L297,185L320,214L296,184L319,214L298,187L315,213L297,186L316,215L295,183L316,216L296,185L314,217L297,187L313,217L297,188L311,219L296,186L309,219L295,184L309,220L296,187L306,222L295,185L305,220L295,186L303,222L295,187L302,225L295,188L300,220L295,189L298,227L294,182L297,227L294,183L295,229L294,184L294,229L293,198L291,231L293,194L290,231L293,192L289,232L293,190L288,233L293,189L287,233L293,188L285,235L293,187L283,236L293,186L283,235L292,190L280,237L292,189L279,239L293,185L279,238L292,188L273,243L292,187L272,243L293,184L271,244L291,189L269,241L292,186L268,243L291,188L267,242L290,190L266,242L289,192L265,238L290,189L264,239L291,187L264,238L292,185L262,238L293,183L261,238L291,186L259,236L289,189L253,240L290,187L249,243L292,184L250,241L289,188L248,243L288,189L241,247L291,185L240,248L290,186L233,253L289,187L232,252L288,188L222,259L285,191L222,258L283,193L222,257L280,196L221,257L282,193L245,229L287,188L244,229L289,186L243,229L290,185L243,228L291,184L239,228L292,183L240,227L287,187L242,222L288,186L239,222L289,185L234,223L293,182L233,223L290,184L233,222L285,187L228,222L288,185L229,221L286,186L225,220L291,183L224,220L289,184L227,217L287,185L226,217L285,186L227,216L283,187L229,212L284,186L230,211L286,185L230,210L288,184L231,208L290,183L232,207L287,184L234,202L292,182L235,201L285,184L238,197L288,183L239,194L291,182L241,193L286,183L242,190L290,182L241,190L289,182L243,188L288,182L251,186L287,182L244,186L286,182L249,185L285,182L246,182Z" fill="#000000" stroke="none"/>
  <path d="M 216,310L280,310L217,307L284,310L218,306L286,310L218,305L288,310L219,304L289,310L220,303L290,310L220,302L291,310L221,300L292,310L223,298L293,310L224,298L289,309L225,295L294,310L226,295L290,309L228,292L291,309L229,290L295,310L230,290L292,309L230,289L289,308L232,287L290,308L233,286L293,309L234,286L291,308L236,282L296,310L237,281L294,309L238,281L287,305L240,279L289,306L240,278L291,307L241,277L293,308L242,277L290,306L246,276L292,307L245,275L295,309L244,274L291,306L247,272L294,308L248,272L293,307L249,270L292,306L250,270L291,305L250,269L290,304L251,269L289,303L251,268L287,301L254,267L291,304L254,266L294,307L255,266L295,308L255,265L296,309L256,265L291,303L258,263L297,310L259,262L294,306L263,261L295,307L264,262L293,304L265,259L294,305L266,257L296,308L267,258L295,306L268,256L294,304L269,257L293,302L269,256L293,301L271,254L294,303L272,255L295,305L273,254L296,307L273,253L295,304L276,251L297,309L277,250L295,303L278,252L295,302L280,249L296,305L280,248L296,304L283,247L297,308L283,246L296,303L287,248L297,307L287,243L297,306L289,242L297,305L290,241L297,304L292,240L297,302L293,240L297,301L294,239L297,298L295,238L297,293L296,238L298,290L299,236L298,299L300,235L298,302L301,235L298,304L302,234L298,305L303,233L298,306L305,232L298,307L308,230L298,308L309,229L299,302L312,228L299,303L314,229L299,304L314,230L300,300L318,224L299,305L318,225L300,302L323,221L299,306L323,222L300,303L325,221L301,300L326,220L302,298L329,219L301,301L330,217L300,304L332,215L299,307L332,216L301,302L337,214L300,305L338,212L301,303L339,215L302,301L343,209L303,299L343,211L304,297L346,206L305,295L347,205L306,293L352,201L302,302L352,202L307,293L357,198L306,295L358,197L305,297L359,196L307,294L365,191L306,296L366,190L308,293L405,134L311,289L405,136L312,288L405,141L313,287L404,147L314,286L403,152L317,282L402,156L318,281L401,160L319,280L399,165L320,279L398,169L321,278L396,173L322,277L395,176L323,276L393,180L324,275L386,191L327,271L384,194L328,270L398,183L336,262L400,182L339,259L401,182L341,257L402,182L343,255L403,182L345,253L404,182L348,250L405,182L350,248L406,182L352,247L408,182L355,244L409,182L358,241L409,183L362,237L410,183L366,234L407,188L367,233L409,186L368,232L410,185L369,231L408,188L373,227L409,187L374,226L411,185L375,225L412,184L376,224L414,186L392,210L414,187L399,203L414,188L401,202L415,188L402,202L415,189L403,202L415,190L404,202L415,191L405,202L415,192L406,202L415,196L409,202L414,198L411,201L399,364L395,364L398,368L394,366L397,369L393,367L396,371L392,369L396,372L391,370L395,374L390,371L394,376L389,373L393,377L388,374L393,378L387,375L392,380L386,376L391,381L385,377L390,382L384,378L390,383L383,379L389,384L382,380L388,386L380,381L386,388L379,382L385,389L378,383L385,390L377,384L384,391L376,384L383,392L374,385L382,393L373,386L380,395L372,387L380,396L369,388L376,399L367,389L375,401L365,390L372,402L363,391L372,403L362,391L370,405L360,392L368,406L358,393L367,406L357,393L365,408L355,394L365,409L354,394L364,410L353,394L362,411L351,395L361,412L350,395L360,412L349,395L358,414L346,396L356,415L344,396L354,416L343,396L353,417L341,396L351,418L340,396L349,419L336,396L346,420L334,396L344,421L333,396L341,421L331,396L340,422L329,395L338,422L328,395L337,423L327,395L336,423L326,395L335,423L325,395L334,424L324,394L333,424L323,394L331,424L322,394L330,424L321,393L329,424L320,393L328,424L319,393L327,425L318,392L325,425L317,392L324,425L316,391L323,425L315,391L322,425L314,390L320,425L313,390L319,425L312,389L318,425L311,389L316,425L310,388L315,425L309,387L314,425L308,387L312,425L306,385L309,423L305,384L308,424L304,383L306,423L303,383L306,424L302,382L303,422L301,381L302,423L300,380L301,423L298,377L297,421L297,376L295,421L296,375L294,420L295,373L292,419L294,372L290,419L293,370L289,418L292,368L286,410L291,367L285,416L291,366L283,415L290,364L281,414L289,361L278,412L288,358L277,411L288,357L275,410L287,353L273,407L287,352L273,404L287,351L272,406L287,350L272,405L286,350L270,402L286,349L269,403L286,348L269,400L286,347L268,401L287,343L267,401L287,342L267,398L287,341L266,398L287,340L265,398L287,339L264,397L287,338L264,396L288,335L263,395L288,334L262,393L288,333L262,391L289,330L261,389L290,327L259,388L291,324L241,416L291,323L240,416L293,319L238,415L294,317L237,414L292,320L234,410L293,318L233,411L291,321L233,410L290,322L231,408L292,319L230,408L294,316L231,406L291,320L228,404L293,317L227,405L292,318L227,401L291,319L225,399L295,314L224,400L290,320L224,396L294,315L222,398L293,316L221,396L292,317L221,395L291,318L220,395L290,319L220,394L289,320L219,394L287,322L219,393L285,324L219,392L280,329L217,390L283,325L217,389L287,321L217,388L289,319L216,388L291,317L216,387L292,316L215,386L293,315L215,384L294,314L213,382L295,313L213,381L290,317L212,378L291,316L213,374L292,315L211,375L296,312L211,374L289,317L212,370L293,314L210,371L290,316L209,371L288,317L209,367L291,315L210,364L294,313L208,365L289,316L209,364L287,317L211,360L292,314L207,362L290,315L208,360L288,316L208,359L286,317L207,359L284,318L208,358L282,319L208,355L287,316L207,355L291,314L207,354L293,313L208,352L295,312L207,352L288,315L209,348L290,314L208,346L292,313L207,346L289,314L208,344L286,315L207,341L294,312L209,340L287,314L207,337L290,313L208,334L293,312L211,333L289,313L210,333L288,313L208,330L292,312L212,329L287,313L209,327L291,312L213,326L290,312L210,323L296,311L214,321L287,312L216,320L286,312L216,317L295,311L215,317L294,311L221,315L293,311L223,314L292,311L215,311Z" fill="#000000" stroke="none"/>
  <path d="M 423,140L427,140L423,137L428,140L425,135L428,139L427,135L428,138L430,135L429,139L433,136L429,140L434,138L430,140L434,140L430,141L433,144L429,141L431,146L429,142L430,146L428,142L426,146L428,141L424,145L427,141L423,141Z" fill="#000000" stroke="none"/>
  <path d="M 339,142L343,142L341,138L344,142L344,138L345,141L348,139L345,142L349,140L345,148L344,143L343,148L343,144L339,145L343,143L339,143Z" fill="#000000" stroke="none"/>
  <path d="M 377,147L381,147L377,145L381,146L379,142L381,145L383,142L382,146L386,144L382,147L387,146L383,147L387,147L383,148L385,152L382,148L383,152L382,149L378,152L381,148L378,151L380,148L377,148Z" fill="#000000" stroke="none"/>
  <path d="M 302,318L345,318L304,315L348,318L305,314L349,318L305,313L350,318L306,311L351,318L307,309L352,318L309,309L349,317L310,305L353,318L311,305L350,317L310,304L348,316L313,302L351,317L312,301L349,316L313,300L348,315L315,298L350,316L316,298L352,317L315,297L354,318L316,296L351,316L320,296L350,315L322,293L353,317L320,291L352,316L322,290L351,315L322,289L350,314L323,289L348,312L323,288L348,311L325,286L350,313L325,285L351,314L326,285L352,315L327,284L353,316L329,286L351,313L329,281L354,317L330,282L352,314L331,278L353,315L332,279L352,313L333,278L351,311L335,276L352,312L335,275L353,314L336,274L354,316L336,273L353,313L338,273L353,312L340,270L354,315L341,273L353,311L343,269L354,314L344,266L355,318L345,265L354,312L346,265L354,311L347,263L354,310L350,260L355,317L351,259L355,316L353,258L355,314L354,257L355,311L355,256L356,298L358,253L356,303L359,252L356,306L360,252L356,308L361,251L356,310L362,250L356,311L364,248L356,312L366,246L356,313L368,245L356,314L369,244L357,310L373,241L356,315L374,240L357,311L377,240L357,312L377,241L358,309L380,241L356,316L380,243L357,313L380,244L359,308L382,246L358,311L383,249L357,314L383,250L358,312L385,250L359,310L387,248L360,308L388,247L361,306L402,225L359,311L403,224L357,315L405,223L356,317L405,224L361,308L406,228L360,310L410,224L359,312L409,226L361,309L412,226L358,314L414,223L360,311L415,225L362,308L417,227L361,310L417,228L359,313L418,229L357,316L419,228L360,312L421,231L358,315L421,235L359,314L394,273L360,313L394,274L361,312L394,275L362,311L394,276L364,309L396,278L363,311L396,279L360,314L396,280L358,316L397,281L357,317L397,282L361,314L398,286L356,318L399,287L359,316L397,290L361,315L399,293L358,317L400,293L360,316L401,294L362,315L400,295L363,315L402,297L361,316L401,299L359,317L399,300L362,316L402,302L357,318L403,302L360,317L402,303L361,317L404,307L358,318L404,308L359,318L404,311L360,318L404,313L361,318L405,314L363,318L405,315L365,318L405,316L368,318L405,317L368,319L405,320L363,319L405,321L361,319L404,322L360,319L404,323L359,319L404,324L358,319L404,327L357,319L404,328L361,320L400,331L360,320L403,332L362,321L400,334L359,320L402,336L356,319L401,337L363,322L401,340L358,320L400,340L360,321L399,340L362,322L400,341L363,323L398,343L361,322L399,345L359,321L398,345L360,322L396,348L357,320L397,349L361,323L395,351L358,321L395,352L359,322L394,353L360,323L394,354L361,324L393,354L363,326L393,355L363,327L391,357L361,325L391,358L359,323L390,359L358,322L389,361L357,321L388,360L359,324L386,365L358,323L385,365L356,320L385,366L359,325L381,365L357,322L382,367L358,324L382,369L359,326L381,368L360,328L379,370L359,327L379,371L358,325L378,371L357,323L378,372L358,326L376,375L356,321L375,375L357,324L374,373L358,327L372,376L357,325L370,376L356,322L370,379L357,327L367,378L356,323L367,380L356,324L365,381L356,325L363,382L356,326L362,383L356,327L361,383L356,329L360,383L356,331L359,384L356,334L358,384L356,339L355,385L355,327L354,385L355,323L353,386L355,322L352,386L355,321L349,386L355,320L348,386L354,327L345,385L354,326L343,387L354,325L341,386L354,324L341,385L353,328L338,386L353,327L338,385L354,323L337,387L353,326L335,387L352,329L333,385L353,325L332,387L354,322L332,386L352,327L329,386L355,319L328,386L352,326L328,382L351,328L323,385L354,321L323,384L352,325L323,383L349,330L320,383L350,328L319,383L351,326L318,382L352,324L319,380L350,327L316,380L353,322L315,381L351,325L312,380L352,323L313,377L351,324L313,373L350,325L308,375L354,320L307,375L353,321L305,373L352,322L305,372L351,323L304,372L350,324L304,371L346,328L303,371L344,329L302,368L346,327L301,368L347,326L301,367L348,325L301,366L349,324L300,366L350,323L300,364L351,322L298,362L352,321L298,361L349,323L298,359L347,324L298,356L350,322L296,356L353,320L297,355L348,323L300,350L351,321L296,352L349,322L297,350L347,323L296,350L345,324L296,347L346,323L297,346L348,322L296,346L350,321L297,344L352,320L296,344L349,321L296,341L348,321L296,338L351,320L296,337L354,319L298,336L350,320L300,333L349,320L298,331L348,320L298,328L353,319L303,327L346,320L299,325L352,319L306,324L351,319L303,323L350,319L305,322L349,319L302,319Z" fill="#000000" stroke="none"/>
  <path d="M 198,275L202,275L199,274L205,267L203,274L208,263L204,273L211,263L205,273L213,266L204,274L213,268L203,275L208,273L196,289L201,278L193,289L202,276L193,288L201,277L194,285L201,276L197,276Z" fill="#000000" stroke="none"/>
  <path d="M 415,512L426,512L415,511L426,511L415,506L427,510L416,506L427,509L415,502L428,509L417,503L427,508L415,499L428,508L415,497L429,508L415,496L429,507L415,489L430,507L415,488L430,506L415,484L430,505L415,477L431,506L415,476L431,505L420,476L432,506L423,476L433,505L434,496L435,504L436,496L436,504L438,496L437,504L440,496L438,503L441,496L439,503L446,496L441,504L449,496L443,504L450,497L444,504L453,499L445,505L454,499L446,505L454,500L447,506L457,503L448,507L459,504L449,508L460,506L450,509L461,509L451,511L461,511L452,512L461,512L452,513L461,516L452,515L461,517L453,516L461,518L453,517L461,519L453,518L461,521L453,519L461,522L453,520L461,524L453,521L461,525L453,522L461,527L453,523L461,528L453,524L461,529L453,525L461,531L453,526L461,532L453,527L461,534L453,528L461,535L453,529L461,541L453,533L462,543L453,534L462,545L453,535L461,545L453,536L460,545L453,537L459,545L453,538L458,545L453,539L457,545L453,540L456,545L453,541L455,545L453,542L454,545L422,545L423,541L421,545L423,539L420,545L423,537L419,545L423,536L418,545L423,534L417,545L423,533L416,545L423,532L415,545L423,531L415,543L423,530L415,538L424,526L415,537L424,525L415,535L424,524L415,533L424,523L415,531L423,523L415,530L423,522L415,527L424,520L415,526L424,519L415,524L424,518L415,522L424,517L415,520L424,516L415,516L425,514L415,513Z" fill="#000000" stroke="none"/>
  <path d="M 515,513L519,513L515,511L518,512L515,499L519,512L515,480L519,510L516,480L519,509L517,480L519,508L518,480L519,504L519,480L520,504L522,480L520,507L523,480L520,509L524,488L520,510L524,492L520,511L523,502L520,512L523,507L521,512L524,512L520,513L524,513L521,514L524,519L520,514L524,526L520,515L524,533L520,516L524,540L520,517L524,545L520,518L523,545L520,519L522,545L520,522L521,545L519,522L518,545L519,518L517,545L519,517L516,545L519,516L515,545L519,515L515,537L519,514L515,524L518,516L515,522L518,515L515,519L518,514L515,514Z" fill="#000000" stroke="none"/>
  <path d="M 269,515L277,515L269,512L278,515L261,508L276,514L261,504L277,514L261,503L276,513L261,501L275,512L261,497L278,514L265,497L277,512L269,494L278,513L269,493L277,510L270,487L278,512L272,485L279,515L273,485L278,509L274,485L278,508L277,485L279,514L278,485L279,513L279,485L280,505L282,485L280,508L283,485L280,512L286,497L280,513L286,498L281,511L289,498L281,512L291,497L280,514L292,497L281,513L295,497L282,512L296,497L283,512L296,501L282,513L296,503L281,514L296,504L282,514L296,508L280,515L283,514L283,518L280,516L299,541L281,518L299,543L282,520L295,543L280,517L295,545L281,519L294,544L282,521L292,546L281,520L290,546L280,518L289,546L280,519L286,546L280,520L285,546L280,521L284,546L280,522L283,546L280,523L282,546L280,526L279,545L279,518L278,545L279,517L276,544L279,516L275,543L278,520L272,540L278,519L271,536L278,518L270,537L277,519L269,531L278,517L269,530L277,518L269,528L277,517L269,522L278,516L269,521L277,516L269,516Z" fill="#000000" stroke="none"/>
  <path d="M 541,522L559,522L544,519L560,522L548,519L558,521L551,517L561,522L540,505L560,521L540,502L559,520L542,500L559,519L546,498L560,520L547,499L559,518L550,497L560,519L552,496L561,521L553,496L560,517L556,496L561,520L557,496L561,519L558,496L561,518L559,495L561,517L560,495L561,503L563,496L563,504L564,496L562,518L565,496L562,519L567,496L562,520L567,498L563,517L570,497L563,518L571,497L562,521L571,498L563,519L575,499L563,520L576,500L564,519L577,502L565,518L579,505L564,520L579,506L563,521L580,509L562,522L581,511L564,521L581,512L565,521L581,517L563,522L581,518L564,522L581,520L565,522L581,521L567,522L581,522L567,523L581,525L565,523L581,527L564,523L581,530L563,523L581,531L572,528L581,533L572,529L581,535L572,530L581,540L571,531L581,545L562,523L580,545L570,533L579,545L570,534L578,545L569,534L576,545L569,535L574,545L568,535L573,545L568,536L570,543L567,536L567,545L565,537L564,546L563,538L563,546L562,538L562,546L561,539L559,547L559,539L557,547L558,539L556,547L557,539L555,546L556,539L551,546L554,538L550,546L553,538L546,545L561,523L544,544L560,524L543,542L548,534L540,540L548,533L539,538L559,524L539,537L547,530L538,534L548,529L539,533L558,524L538,533L560,523L538,532L557,524L540,528L559,523L539,528L558,523L541,526L557,523L540,523Z" fill="#000000" stroke="none"/>
  <path d="M 213,520L232,520L219,517L233,520L215,511L232,519L214,508L231,518L212,501L234,520L212,500L233,519L214,500L223,508L216,498L231,516L217,498L232,517L219,497L233,518L220,497L232,516L223,496L233,517L224,496L234,519L225,496L233,516L228,496L234,518L229,496L234,517L231,496L234,516L232,496L234,507L235,496L235,508L236,496L235,516L237,496L235,517L238,496L235,518L240,496L235,519L240,497L238,510L243,498L236,517L245,500L236,518L247,499L235,520L248,500L237,517L250,502L236,519L252,504L238,518L253,508L237,519L254,508L238,519L254,512L236,520L254,513L237,520L254,516L238,520L255,518L240,520L255,519L241,521L255,522L239,521L255,523L238,521L255,524L237,521L255,527L236,521L255,528L238,522L254,529L239,523L254,532L237,522L254,533L238,523L254,535L239,524L254,536L240,525L254,540L237,523L254,541L236,522L255,545L235,521L254,545L237,524L248,544L236,523L248,545L240,531L247,545L239,531L244,544L236,524L242,545L235,522L239,542L235,523L237,544L235,535L234,545L234,535L230,546L234,524L228,546L234,523L228,545L229,536L224,546L234,522L224,544L233,523L214,543L232,523L212,541L233,522L212,540L222,530L210,537L234,521L211,536L232,522L209,534L230,523L209,531L231,522L210,530L230,522L210,527L233,521L209,527L232,521L213,524L231,521L212,521Z" fill="#000000" stroke="none"/>
  <path d="M 303,520L321,520L303,517L322,520L303,516L323,520L304,513L324,520L305,513L322,519L305,509L323,519L306,507L325,520L307,507L324,519L308,505L323,518L308,504L315,509L311,501L324,518L313,500L325,519L314,500L318,506L317,498L325,518L318,499L321,504L320,497L322,504L321,496L323,504L324,496L326,520L325,496L326,519L326,496L327,503L328,496L328,503L329,496L329,503L330,497L331,503L334,496L327,518L334,498L332,504L335,497L333,504L338,498L327,519L339,498L328,518L341,500L338,507L345,502L339,508L345,503L328,519L346,504L327,520L346,505L330,518L347,508L329,519L348,508L331,518L350,510L330,519L350,511L328,520L351,514L329,520L351,515L330,520L351,517L332,520L351,518L333,520L351,521L331,521L351,522L329,521L351,523L328,521L351,524L327,521L338,524L328,522L348,536L329,523L348,538L330,524L348,539L341,534L345,541L329,524L345,542L328,523L343,542L327,522L343,543L338,537L342,543L337,537L339,542L328,524L340,544L336,538L339,544L335,538L336,544L327,523L336,546L327,524L333,546L331,539L332,546L330,539L331,546L329,539L330,546L328,539L326,546L326,522L325,546L324,538L322,546L326,521L321,546L322,538L319,543L325,524L318,545L320,537L316,543L325,523L316,542L318,535L313,542L324,524L313,541L316,533L310,540L325,522L310,539L324,523L309,539L323,524L309,538L322,524L307,535L323,523L306,533L324,522L305,533L322,523L304,530L323,522L303,527L325,521L303,526L324,521L303,521Z" fill="#000000" stroke="none"/>
  <path d="M 359,521L367,521L359,520L367,520L359,519L367,519L359,517L367,518L359,514L368,517L360,514L368,516L360,510L369,514L361,508L369,513L362,507L369,512L363,505L370,511L364,504L371,510L366,503L372,509L368,502L373,508L371,499L374,507L371,498L374,506L372,498L375,506L373,498L375,505L376,498L377,505L377,496L378,504L378,496L379,504L379,496L380,504L381,496L381,504L382,496L382,503L384,496L383,503L385,496L384,503L386,496L385,503L390,496L387,504L391,496L388,504L395,497L390,505L397,498L392,506L400,500L394,507L401,501L395,508L403,503L396,509L404,504L397,509L404,505L397,510L404,506L398,510L404,507L399,510L403,508L400,510L400,531L403,533L399,531L404,534L398,531L404,536L397,532L404,537L396,533L403,538L395,534L402,540L394,535L399,541L393,535L399,542L392,536L396,544L390,537L394,545L388,538L391,546L387,538L390,546L386,538L388,546L385,538L387,546L384,538L385,546L383,538L384,546L382,538L382,546L381,538L381,546L380,538L379,546L379,537L378,546L378,537L377,546L376,536L374,545L374,535L370,543L373,534L368,542L372,533L367,541L371,532L365,539L370,531L363,537L370,530L363,536L369,529L362,533L369,528L360,531L368,525L359,528L368,524L359,526L367,524L359,525L367,523L359,522Z" fill="#000000" stroke="none"/>
  <path d="M 185,510L190,510L185,505L191,510L185,504L190,508L185,499L191,509L185,497L191,508L191,497L192,510L192,497L193,506L195,497L193,507L196,497L193,508L198,497L193,509L198,500L194,508L198,505L193,510L199,507L194,510L199,508L195,510L199,511L193,511L199,512L194,512L199,518L193,512L199,519L194,514L199,524L193,513L198,525L193,514L196,525L193,515L192,522L192,512L190,521L192,511L190,520L191,514L186,524L191,513L185,524L191,512L185,518L190,512L185,512L191,511L185,511Z" fill="#000000" stroke="none"/>
  <path d="M 474,519L484,519L474,516L485,519L477,516L486,519L484,516L489,516L487,519L499,516L489,519L499,517L490,519L499,518L491,519L499,521L489,520L499,523L488,520L497,523L487,520L490,523L483,523L486,520L474,523L484,520L474,520Z" fill="#000000" stroke="none"/>
</svg>