<?xml version="1.0" encoding="UTF-8" standalone="no"?>
<svg
  xmlns="http://www.w3.org/2000/svg"
  viewBox="0 0 610 610"
  width="610"
  height="610"
  preserveAspectRatio="xMidYMid meet"
>
  <style>
    svg { display: block; }
    path { fill: inherit; color: inherit; }
  </style>
  <path d="M1 1 L2 5 Z" fill="currentColor" stroke="none" stroke-linejoin="round" stroke-linecap="round"/>
  <path d="M22 1 L27 4 Z" fill="currentColor" stroke="none" stroke-linejoin="round" stroke-linecap="round"/>
  <path d="M57 1 L33 5 Z" fill="currentColor" stroke="none" stroke-linejoin="round" stroke-linecap="round"/>
  <path d="M69 1 L54 5 Z" fill="currentColor" stroke="none" stroke-linejoin="round" stroke-linecap="round"/>
  <path d="M76 1 L129 5 Z" fill="currentColor" stroke="none" stroke-linejoin="round" stroke-linecap="round"/>
  <path d="M143 1 L135 4 Z" fill="currentColor" stroke="none" stroke-linejoin="round" stroke-linecap="round"/>
  <path d="M149 1 L138 4 Z" fill="currentColor" stroke="none" stroke-linejoin="round" stroke-linecap="round"/>
  <path d="M194 1 L177 4 Z" fill="currentColor" stroke="none" stroke-linejoin="round" stroke-linecap="round"/>
  <path d="M201 1 L188 4 Z" fill="currentColor" stroke="none" stroke-linejoin="round" stroke-linecap="round"/>
  <path d="M262 1 L217 4 Z" fill="currentColor" stroke="none" stroke-linejoin="round" stroke-linecap="round"/>
  <path d="M282 1 L270 4 Z" fill="currentColor" stroke="none" stroke-linejoin="round" stroke-linecap="round"/>
  <path d="M307 1 L276 4 Z" fill="currentColor" stroke="none" stroke-linejoin="round" stroke-linecap="round"/>
  <path d="M316 1 L393 4 Z" fill="currentColor" stroke="none" stroke-linejoin="round" stroke-linecap="round"/>
  <path d="M424 1 L395 4 Z" fill="currentColor" stroke="none" stroke-linejoin="round" stroke-linecap="round"/>
  <path d="M432 1 L426 4 Z" fill="currentColor" stroke="none" stroke-linejoin="round" stroke-linecap="round"/>
  <path d="M435 1 L428 4 Z" fill="currentColor" stroke="none" stroke-linejoin="round" stroke-linecap="round"/>
  <path d="M448 1 L430 4 Z" fill="currentColor" stroke="none" stroke-linejoin="round" stroke-linecap="round"/>
  <path d="M507 1 L444 4 Z" fill="currentColor" stroke="none" stroke-linejoin="round" stroke-linecap="round"/>
  <path d="M513 1 L538 4 Z" fill="currentColor" stroke="none" stroke-linejoin="round" stroke-linecap="round"/>
  <path d="M574 1 L540 4 Z" fill="currentColor" stroke="none" stroke-linejoin="round" stroke-linecap="round"/>
  <path d="M585 1 L608 4 Z" fill="currentColor" stroke="none" stroke-linejoin="round" stroke-linecap="round"/>
  <path d="M76 2 L56 5 Z" fill="currentColor" stroke="none" stroke-linejoin="round" stroke-linecap="round"/>
  <path d="M79 2 L71 4 Z" fill="currentColor" stroke="none" stroke-linejoin="round" stroke-linecap="round"/>
  <path d="M95 2 L75 5 Z" fill="currentColor" stroke="none" stroke-linejoin="round" stroke-linecap="round"/>
  <path d="M99 2 L113 4 Z" fill="currentColor" stroke="none" stroke-linejoin="round" stroke-linecap="round"/>
  <path d="M314 2 L300 4 Z" fill="currentColor" stroke="none" stroke-linejoin="round" stroke-linecap="round"/>
  <path d="M322 2 L316 4 Z" fill="currentColor" stroke="none" stroke-linejoin="round" stroke-linecap="round"/>
  <path d="M326 2 L318 4 Z" fill="currentColor" stroke="none" stroke-linejoin="round" stroke-linecap="round"/>
  <path d="M329 2 L339 4 Z" fill="currentColor" stroke="none" stroke-linejoin="round" stroke-linecap="round"/>
  <path d="M346 2 L341 4 Z" fill="currentColor" stroke="none" stroke-linejoin="round" stroke-linecap="round"/>
  <path d="M366 2 L388 4 Z" fill="currentColor" stroke="none" stroke-linejoin="round" stroke-linecap="round"/>
  <path d="M524 2 L521 4 Z" fill="currentColor" stroke="none" stroke-linejoin="round" stroke-linecap="round"/>
  <path d="M596 2 L599 4 Z" fill="currentColor" stroke="none" stroke-linejoin="round" stroke-linecap="round"/>
  <path d="M52 3 L43 4 Z" fill="currentColor" stroke="none" stroke-linejoin="round" stroke-linecap="round"/>
  <path d="M96 3 L95 5 Z" fill="currentColor" stroke="none" stroke-linejoin="round" stroke-linecap="round"/>
  <path d="M119 3 L121 5 Z" fill="currentColor" stroke="none" stroke-linejoin="round" stroke-linecap="round"/>
  <path d="M147 3 L148 4 Z" fill="currentColor" stroke="none" stroke-linejoin="round" stroke-linecap="round"/>
  <path d="M153 3 L153 4 Z" fill="currentColor" stroke="none" stroke-linejoin="round" stroke-linecap="round"/>
  <path d="M157 3 L167 3 Z" fill="currentColor" stroke="none" stroke-linejoin="round" stroke-linecap="round"/>
  <path d="M201 3 L199 4 Z" fill="currentColor" stroke="none" stroke-linejoin="round" stroke-linecap="round"/>
  <path d="M204 3 L202 4 Z" fill="currentColor" stroke="none" stroke-linejoin="round" stroke-linecap="round"/>
  <path d="M210 3 L205 4 Z" fill="currentColor" stroke="none" stroke-linejoin="round" stroke-linecap="round"/>
  <path d="M259 3 L254 4 Z" fill="currentColor" stroke="none" stroke-linejoin="round" stroke-linecap="round"/>
  <path d="M327 3 L324 4 Z" fill="currentColor" stroke="none" stroke-linejoin="round" stroke-linecap="round"/>
  <path d="M358 3 L353 4 Z" fill="currentColor" stroke="none" stroke-linejoin="round" stroke-linecap="round"/>
  <path d="M365 3 L363 4 Z" fill="currentColor" stroke="none" stroke-linejoin="round" stroke-linecap="round"/>
  <path d="M375 3 L378 4 Z" fill="currentColor" stroke="none" stroke-linejoin="round" stroke-linecap="round"/>
  <path d="M390 3 L391 4 Z" fill="currentColor" stroke="none" stroke-linejoin="round" stroke-linecap="round"/>
  <path d="M505 3 L502 4 Z" fill="currentColor" stroke="none" stroke-linejoin="round" stroke-linecap="round"/>
  <path d="M572 3 L577 3 Z" fill="currentColor" stroke="none" stroke-linejoin="round" stroke-linecap="round"/>
  <path d="M581 3 L584 4 Z" fill="currentColor" stroke="none" stroke-linejoin="round" stroke-linecap="round"/>
  <path d="M20 4 L25 5 Z" fill="currentColor" stroke="none" stroke-linejoin="round" stroke-linecap="round"/>
  <path d="M37 4 L35 5 Z" fill="currentColor" stroke="none" stroke-linejoin="round" stroke-linecap="round"/>
  <path d="M97 4 L99 5 Z" fill="currentColor" stroke="none" stroke-linejoin="round" stroke-linecap="round"/>
  <path d="M141 4 L144 4 Z" fill="currentColor" stroke="none" stroke-linejoin="round" stroke-linecap="round"/>
  <path d="M155 4 L159 4 Z" fill="currentColor" stroke="none" stroke-linejoin="round" stroke-linecap="round"/>
  <path d="M219 4 L228 4 Z" fill="currentColor" stroke="none" stroke-linejoin="round" stroke-linecap="round"/>
  <path d="M230 4 L233 4 Z" fill="currentColor" stroke="none" stroke-linejoin="round" stroke-linecap="round"/>
  <path d="M244 4 L251 4 Z" fill="currentColor" stroke="none" stroke-linejoin="round" stroke-linecap="round"/>
  <path d="M283 4 L287 4 Z" fill="currentColor" stroke="none" stroke-linejoin="round" stroke-linecap="round"/>
  <path d="M344 4 L351 4 Z" fill="currentColor" stroke="none" stroke-linejoin="round" stroke-linecap="round"/>
  <path d="M399 4 L402 4 Z" fill="currentColor" stroke="none" stroke-linejoin="round" stroke-linecap="round"/>
  <path d="M404 4 L420 4 Z" fill="currentColor" stroke="none" stroke-linejoin="round" stroke-linecap="round"/>
  <path d="M435 4 L441 4 Z" fill="currentColor" stroke="none" stroke-linejoin="round" stroke-linecap="round"/>
  <path d="M446 4 L451 4 Z" fill="currentColor" stroke="none" stroke-linejoin="round" stroke-linecap="round"/>
  <path d="M453 4 L458 4 Z" fill="currentColor" stroke="none" stroke-linejoin="round" stroke-linecap="round"/>
  <path d="M468 4 L471 4 Z" fill="currentColor" stroke="none" stroke-linejoin="round" stroke-linecap="round"/>
  <path d="M483 4 L488 4 Z" fill="currentColor" stroke="none" stroke-linejoin="round" stroke-linecap="round"/>
  <path d="M490 4 L495 4 Z" fill="currentColor" stroke="none" stroke-linejoin="round" stroke-linecap="round"/>
  <path d="M514 4 L517 4 Z" fill="currentColor" stroke="none" stroke-linejoin="round" stroke-linecap="round"/>
  <path d="M553 4 L572 4 Z" fill="currentColor" stroke="none" stroke-linejoin="round" stroke-linecap="round"/>
  <path d="M586 4 L590 4 Z" fill="currentColor" stroke="none" stroke-linejoin="round" stroke-linecap="round"/>
  <path d="M4 5 L7 5 Z" fill="currentColor" stroke="none" stroke-linejoin="round" stroke-linecap="round"/>
  <path d="M62 5 L66 5 Z" fill="currentColor" stroke="none" stroke-linejoin="round" stroke-linecap="round"/>
  <path d="M80 5 L84 5 Z" fill="currentColor" stroke="none" stroke-linejoin="round" stroke-linecap="round"/>
  <path d="M105 5 L108 5 Z" fill="currentColor" stroke="none" stroke-linejoin="round" stroke-linecap="round"/>
</svg>