<?xml version="1.0" encoding="UTF-8" standalone="no"?>
<svg
  xmlns="http://www.w3.org/2000/svg"
  viewBox="0 0 610 610"
  width="610"
  height="610"
  preserveAspectRatio="xMidYMid meet"
>
  <style>
    svg { display: block; }
    path { fill: inherit; color: inherit; }
  </style>
  <path d="M1 1 L6 3 Z" fill="currentColor" stroke="none" stroke-linejoin="round" stroke-linecap="round"/>
  <path d="M13 1 L9 3 Z" fill="currentColor" stroke="none" stroke-linejoin="round" stroke-linecap="round"/>
  <path d="M18 1 L11 3 Z" fill="currentColor" stroke="none" stroke-linejoin="round" stroke-linecap="round"/>
  <path d="M28 1 L16 3 Z" fill="currentColor" stroke="none" stroke-linejoin="round" stroke-linecap="round"/>
  <path d="M32 1 L27 3 Z" fill="currentColor" stroke="none" stroke-linejoin="round" stroke-linecap="round"/>
  <path d="M42 1 L42 3 Z" fill="currentColor" stroke="none" stroke-linejoin="round" stroke-linecap="round"/>
  <path d="M78 1 L48 3 Z" fill="currentColor" stroke="none" stroke-linejoin="round" stroke-linecap="round"/>
  <path d="M142 1 L186 2 Z" fill="currentColor" stroke="none" stroke-linejoin="round" stroke-linecap="round"/>
  <path d="M203 1 L230 2 Z" fill="currentColor" stroke="none" stroke-linejoin="round" stroke-linecap="round"/>
  <path d="M234 1 L232 2 Z" fill="currentColor" stroke="none" stroke-linejoin="round" stroke-linecap="round"/>
  <path d="M242 1 L240 2 Z" fill="currentColor" stroke="none" stroke-linejoin="round" stroke-linecap="round"/>
  <path d="M256 1 L258 2 Z" fill="currentColor" stroke="none" stroke-linejoin="round" stroke-linecap="round"/>
  <path d="M265 1 L274 2 Z" fill="currentColor" stroke="none" stroke-linejoin="round" stroke-linecap="round"/>
  <path d="M283 1 L285 2 Z" fill="currentColor" stroke="none" stroke-linejoin="round" stroke-linecap="round"/>
  <path d="M310 1 L331 2 Z" fill="currentColor" stroke="none" stroke-linejoin="round" stroke-linecap="round"/>
  <path d="M345 1 L343 2 Z" fill="currentColor" stroke="none" stroke-linejoin="round" stroke-linecap="round"/>
  <path d="M348 1 L353 2 Z" fill="currentColor" stroke="none" stroke-linejoin="round" stroke-linecap="round"/>
  <path d="M361 1 L378 2 Z" fill="currentColor" stroke="none" stroke-linejoin="round" stroke-linecap="round"/>
  <path d="M388 1 L387 2 Z" fill="currentColor" stroke="none" stroke-linejoin="round" stroke-linecap="round"/>
  <path d="M392 1 L400 2 Z" fill="currentColor" stroke="none" stroke-linejoin="round" stroke-linecap="round"/>
  <path d="M410 1 L408 2 Z" fill="currentColor" stroke="none" stroke-linejoin="round" stroke-linecap="round"/>
  <path d="M416 1 L414 2 Z" fill="currentColor" stroke="none" stroke-linejoin="round" stroke-linecap="round"/>
  <path d="M419 1 L419 2 Z" fill="currentColor" stroke="none" stroke-linejoin="round" stroke-linecap="round"/>
  <path d="M427 1 L445 2 Z" fill="currentColor" stroke="none" stroke-linejoin="round" stroke-linecap="round"/>
  <path d="M457 1 L455 2 Z" fill="currentColor" stroke="none" stroke-linejoin="round" stroke-linecap="round"/>
  <path d="M472 1 L470 2 Z" fill="currentColor" stroke="none" stroke-linejoin="round" stroke-linecap="round"/>
  <path d="M476 1 L487 2 Z" fill="currentColor" stroke="none" stroke-linejoin="round" stroke-linecap="round"/>
  <path d="M498 1 L515 2 Z" fill="currentColor" stroke="none" stroke-linejoin="round" stroke-linecap="round"/>
  <path d="M521 1 L519 2 Z" fill="currentColor" stroke="none" stroke-linejoin="round" stroke-linecap="round"/>
  <path d="M528 1 L531 2 Z" fill="currentColor" stroke="none" stroke-linejoin="round" stroke-linecap="round"/>
  <path d="M533 1 L543 2 Z" fill="currentColor" stroke="none" stroke-linejoin="round" stroke-linecap="round"/>
  <path d="M545 1 L565 2 Z" fill="currentColor" stroke="none" stroke-linejoin="round" stroke-linecap="round"/>
  <path d="M574 1 L586 2 Z" fill="currentColor" stroke="none" stroke-linejoin="round" stroke-linecap="round"/>
  <path d="M594 1 L596 2 Z" fill="currentColor" stroke="none" stroke-linejoin="round" stroke-linecap="round"/>
  <path d="M600 1 L598 2 Z" fill="currentColor" stroke="none" stroke-linejoin="round" stroke-linecap="round"/>
  <path d="M39 2 L30 3 Z" fill="currentColor" stroke="none" stroke-linejoin="round" stroke-linecap="round"/>
  <path d="M140 2 L146 3 Z" fill="currentColor" stroke="none" stroke-linejoin="round" stroke-linecap="round"/>
  <path d="M151 2 L149 3 Z" fill="currentColor" stroke="none" stroke-linejoin="round" stroke-linecap="round"/>
  <path d="M162 2 L179 2 Z" fill="currentColor" stroke="none" stroke-linejoin="round" stroke-linecap="round"/>
  <path d="M200 2 L212 2 Z" fill="currentColor" stroke="none" stroke-linejoin="round" stroke-linecap="round"/>
  <path d="M214 2 L224 2 Z" fill="currentColor" stroke="none" stroke-linejoin="round" stroke-linecap="round"/>
  <path d="M308 2 L329 2 Z" fill="currentColor" stroke="none" stroke-linejoin="round" stroke-linecap="round"/>
  <path d="M346 2 L351 2 Z" fill="currentColor" stroke="none" stroke-linejoin="round" stroke-linecap="round"/>
  <path d="M361 2 L376 2 Z" fill="currentColor" stroke="none" stroke-linejoin="round" stroke-linecap="round"/>
  <path d="M390 2 L398 2 Z" fill="currentColor" stroke="none" stroke-linejoin="round" stroke-linecap="round"/>
  <path d="M427 2 L443 2 Z" fill="currentColor" stroke="none" stroke-linejoin="round" stroke-linecap="round"/>
  <path d="M480 2 L485 2 Z" fill="currentColor" stroke="none" stroke-linejoin="round" stroke-linecap="round"/>
  <path d="M498 2 L510 2 Z" fill="currentColor" stroke="none" stroke-linejoin="round" stroke-linecap="round"/>
  <path d="M526 2 L529 2 Z" fill="currentColor" stroke="none" stroke-linejoin="round" stroke-linecap="round"/>
  <path d="M533 2 L536 2 Z" fill="currentColor" stroke="none" stroke-linejoin="round" stroke-linecap="round"/>
  <path d="M548 2 L552 2 Z" fill="currentColor" stroke="none" stroke-linejoin="round" stroke-linecap="round"/>
  <path d="M556 2 L562 2 Z" fill="currentColor" stroke="none" stroke-linejoin="round" stroke-linecap="round"/>
  <path d="M76 3 L80 3 Z" fill="currentColor" stroke="none" stroke-linejoin="round" stroke-linecap="round"/>
  <path d="M82 3 L98 3 Z" fill="currentColor" stroke="none" stroke-linejoin="round" stroke-linecap="round"/>
  <path d="M106 3 L123 3 Z" fill="currentColor" stroke="none" stroke-linejoin="round" stroke-linecap="round"/>
  <path d="M125 3 L131 3 Z" fill="currentColor" stroke="none" stroke-linejoin="round" stroke-linecap="round"/>
  <path d="M133 3 L144 3 Z" fill="currentColor" stroke="none" stroke-linejoin="round" stroke-linecap="round"/>
  <path d="M160 3 L177 3 Z" fill="currentColor" stroke="none" stroke-linejoin="round" stroke-linecap="round"/>
</svg>