<?xml version="1.0" encoding="UTF-8"?>
<svg xmlns="http://www.w3.org/2000/svg" viewBox="0 0 610 610" width="610" height="610">
  <path d="M306 101 L308 103 L305 107 L301 112 L299 116 L305 122 L307 124 L321 136 L327 141 L330 141 L334 143 L332 142 L336 141 L346 151 L349 155 L352 160 L352 163 L338 177 L340 180 L339 188 L337 191 L326 193 L333 192 L332 191 L337 189 L338 181 L338 179 L340 178 L342 179 L345 176 L342 176 L346 175 L344 174 L348 173 L346 172 L350 171 L348 170 L354 168 L361 175 L363 180 L358 184 L352 188 L348 191 L343 194 L337 198 L332 201 L326 205 L321 208 L316 211 L311 214 L306 217 L301 220 L296 223 L290 227 L284 231 L278 235 L271 240 L264 245 L259 249 L254 253 L248 258 L239 266 L233 273 L229 278 L225 284 L222 289 L220 294 L217 299 L216 303 L214 309 L212 316 L211 322 L210 342 L211 348 L212 352 L214 359 L215 362 L212 361 L214 360 L211 359 L210 357 L213 356 L211 355 L209 354 L211 353 L208 353 L207 351 L210 350 L210 344 L209 323 L210 317 L211 313 L213 309 L214 306 L215 303 L216 300 L217 297 L218 294 L220 291 L221 288 L224 285 L225 282 L228 279 L229 276 L232 274 L234 271 L235 268 L239 265 L238 264 L243 261 L243 259 L248 257 L245 257 L250 255 L253 252 L251 252 L256 250 L260 247 L261 244 L264 244 L267 241 L265 241 L271 239 L274 236 L272 236 L278 234 L282 231 L284 228 L287 228 L291 225 L293 222 L296 222 L295 221 L301 219 L305 216 L303 216 L308 213 L311 213 L310 212 L316 210 L320 207 L318 207 L324 205 L323 204 L329 202 L333 199 L331 199 L337 197 L341 194 L346 191 L342 192 L348 190 L351 187 L349 187 L355 185 L359 182 L361 179 L360 176 L358 173 L360 173 L358 171 L356 169 L351 167 L355 166 L208 349 L207 347 L205 346 L207 345 L205 344 L206 342 L204 341 L205 339 L203 338 L202 336 L204 335 L202 334 L201 332 L203 331 L201 330 L202 327 L200 325 L202 324 L200 323 L201 320 L200 318 L201 315 L200 313 L201 310 L200 308 L201 305 L200 303 L201 300 L200 298 L202 295 L201 293 L202 290 L203 287 L202 285 L204 282 L206 279 L205 277 L207 274 L210 271 L207 272 L211 269 L208 270 L212 267 L208 268 L212 265 L209 265 L216 263 L219 260 L215 261 L209 263 L214 261 L220 259 L217 258 L219 256 L222 257 L232 255 L223 254 L226 253 L222 253 L218 256 L221 253 L222 250 L223 247 L225 244 L222 245 L227 242 L231 242 L236 245 L236 251 L231 253 L235 251 L235 245 L239 244 L235 243 L232 242 L237 241 L241 242 L238 241 L244 240 L242 239 L246 238 L247 235 L252 234 L249 233 L242 238 L235 240 L240 238 L240 237 L245 234 L244 234 L238 238 L250 232 L255 232 L250 231 L254 229 L256 228 L260 229 L265 226 L261 227 L258 228 L256 227 L259 226 L262 226 L267 225 L263 224 L260 226 L258 225 L262 224 L270 223 L263 222 L270 221 L275 220 L271 219 L265 220 L270 219 L280 218 L285 219 L281 218 L271 217 L276 216 L280 216 L277 214 L278 211 L277 209 L281 208 L283 207 L288 209 L290 212 L289 216 L286 216 L289 212 L288 211 L290 210 L292 211 L290 208 L286 208 L291 207 L293 206 L297 208 L295 207 L302 205 L297 203 L292 205 L297 202 L301 201 L303 200 L307 202 L305 201 L310 200 L305 198 L300 200 L295 202 L300 199 L304 198 L308 197 L310 198 L315 197 L310 195 L305 196 L309 195 L313 194 L315 195 L320 194 L326 192 L323 191 L317 193 L315 192 L310 193 L314 192 L318 191 L320 192 L324 190 L320 189 L315 190 L319 189 L318 188 L320 185 L319 183 L320 180 L323 177 L320 177 L324 176 L332 174 L336 177 L340 174 L341 171 L346 168 L347 165 L351 163 L350 161 L349 159 L348 156 L346 155 L345 152 L343 151 L342 148 L344 148 L342 145 L340 146 L341 144 L339 143 L337 141 L333 140 L328 140 L326 139 L324 137 L326 136 L330 139 L337 139 L330 138 L335 137 L331 136 L327 138 L331 135 L327 136 L327 135 L323 136 L321 135 L318 135 L316 132 L313 130 L312 128 L320 134 L321 134 L313 126 L311 127 L312 124 L309 125 L312 123 L309 123 L306 122 L309 121 L307 120 L304 120 L301 120 L298 118 L297 116 L293 121 L290 125 L285 132 L281 138 L276 145 L272 151 L268 157 L265 162 L261 168 L258 173 L254 179 L251 184 L248 189 L245 194 L242 199 L239 204 L237 209 L234 213 L232 218 L228 224 L226 229 L223 234 L221 239 L218 244 L217 248 L214 253 L213 257 L211 260 L210 258 L213 254 L214 251 L215 248 L217 245 L218 242 L219 239 L221 236 L222 233 L224 230 L225 227 L227 224 L228 221 L230 218 L232 215 L233 212 L236 209 L237 206 L238 203 L241 200 L243 197 L244 194 L245 191 L248 188 L250 185 L251 182 L253 179 L254 176 L257 174 L255 174 L258 172 L260 169 L261 166 L264 163 L265 160 L266 157 L269 155 L267 155 L271 152 L272 149 L275 146 L276 143 L279 140 L278 139 L282 136 L283 133 L286 130 L287 127 L290 124 L289 123 L293 120 L292 119 L296 116 L295 115 L299 112 L300 109 L304 106 L307 103 L305 102 L307 101 L308 101 L301 117 L303 118 L336 175 L333 174 L327 173 L322 175 L326 173 L286 207 L282 206 L281 206 L232 241 L227 241 L226 241 L305 124 Z" fill="currentColor" stroke="none"/>
  <path d="M327 130 L327 132 Z" fill="currentColor" stroke="none"/>
  <path d="M324 151 L325 153 L324 157 L327 160 L331 160 L327 159 L323 159 L323 154 L323 152 L325 151 L329 152 L333 156 L331 155 L333 154 L331 153 L326 151 Z" fill="currentColor" stroke="none"/>
  <path d="M299 169 L300 171 L297 174 L301 180 L304 180 L301 179 L297 179 L296 177 L296 174 L299 171 L296 172 L300 169 L307 174 L307 177 L303 178 L306 175 L307 172 L305 171 L301 169 L300 178 Z" fill="currentColor" stroke="none"/>
  <path d="M313 226 L314 228 L327 243 L321 249 L317 252 L312 256 L306 261 L289 277 L294 282 L295 286 L296 292 L298 295 L295 299 L292 304 L290 309 L287 314 L286 318 L284 325 L283 329 L282 348 L283 353 L285 359 L287 364 L291 370 L310 391 L315 393 L320 395 L327 397 L331 398 L355 399 L360 398 L364 397 L368 396 L374 394 L372 393 L365 395 L361 396 L356 397 L332 398 L328 397 L324 396 L321 395 L318 394 L316 393 L314 392 L312 391 L310 390 L307 389 L309 388 L307 387 L304 387 L302 386 L300 384 L298 382 L296 380 L294 378 L292 376 L291 374 L290 371 L288 370 L287 368 L286 366 L286 363 L284 361 L284 358 L283 355 L282 350 L281 330 L282 326 L283 322 L285 318 L286 315 L287 312 L288 309 L290 306 L291 303 L294 300 L295 297 L290 300 L279 302 L286 301 L291 298 L287 299 L292 297 L293 294 L297 295 L293 293 L295 288 L294 285 L292 283 L290 281 L287 279 L289 278 L287 277 L289 274 L294 271 L295 268 L300 265 L301 262 L306 260 L309 257 L313 254 L309 255 L314 253 L318 250 L322 247 L318 248 L323 246 L326 244 L325 243 L327 242 L330 242 L326 241 L330 239 L332 240 L333 237 L327 239 L324 241 L319 241 L322 240 L323 238 L326 239 L329 238 L324 238 L322 237 L319 240 L316 240 L317 238 L319 239 L321 236 L317 237 L317 234 L314 234 L317 232 L314 233 L312 231 L310 230 L304 235 L300 238 L296 241 L292 244 L287 248 L282 252 L274 259 L259 273 L253 280 L250 284 L246 290 L243 295 L241 300 L238 305 L237 309 L235 314 L233 321 L232 325 L231 331 L230 350 L231 357 L232 362 L234 371 L231 374 L234 378 L240 386 L257 404 L262 406 L267 409 L271 410 L277 412 L284 414 L290 415 L296 416 L306 417 L311 418 L307 417 L311 416 L308 415 L297 416 L291 415 L285 414 L281 413 L278 412 L275 411 L272 410 L269 409 L267 408 L265 407 L263 406 L261 405 L259 404 L257 403 L255 401 L253 399 L250 399 L248 396 L245 394 L243 391 L240 390 L239 387 L237 386 L235 384 L234 382 L233 379 L231 378 L230 376 L229 374 L228 372 L232 371 L229 370 L227 369 L227 368 L233 369 L232 367 L232 364 L231 359 L230 352 L229 332 L230 326 L231 322 L232 318 L234 314 L235 311 L236 308 L237 305 L238 302 L240 299 L241 296 L243 293 L244 290 L247 288 L245 288 L249 285 L250 282 L253 279 L252 278 L257 275 L258 272 L262 269 L263 266 L268 263 L269 260 L274 258 L277 255 L278 252 L282 251 L279 251 L284 249 L288 246 L289 243 L292 243 L295 240 L293 240 L298 238 L297 237 L302 235 L301 234 L306 232 L305 231 L312 229 L310 228 L312 227 L244 390 L252 398 L253 398 L305 415 L310 414 L302 414 L306 413 L303 412 L299 413 L302 412 L300 411 L298 410 L296 409 L294 408 L292 407 L290 406 L286 406 L289 405 L287 404 L284 404 L286 403 L282 403 L284 402 L281 402 L282 400 L279 400 L280 398 L277 398 L278 396 L275 396 L276 394 L273 394 L274 392 L271 392 L272 390 L269 390 L268 388 L270 387 L267 387 L266 385 L268 384 L265 384 L264 382 L266 381 L263 380 L265 379 L262 378 L264 377 L262 376 L263 374 L260 373 L262 372 L260 371 L261 369 L259 368 L260 366 L258 365 L257 363 L259 362 L257 361 L258 358 L257 356 L256 354 L257 351 L255 349 L257 348 L255 347 L256 344 L257 341 L256 339 L257 336 L256 334 L257 331 L258 328 L259 325 L258 323 L260 320 L262 317 L261 315 L263 312 L265 309 L264 307 L267 304 L270 301 L267 302 L271 300 L269 299 L273 298 L277 301 L275 299 L270 297 L274 296 L277 296 L285 298 L280 297 L278 296 L276 295 L274 293 L276 292 L274 291 L275 288 L277 285 L274 286 L279 283 L276 283 L281 282 L283 281 L291 288 L291 293 L289 292 L290 288 L291 285 L288 284 L286 282 L284 281 L282 280 L281 280 L284 296 L285 296 L331 237 L298 293 L302 290 L299 290 L302 287 L306 285 L304 284 L306 281 L309 281 L307 280 L311 279 L315 280 L317 283 L314 286 L311 291 L309 296 L306 300 L305 304 L302 309 L302 312 L300 319 L299 325 L298 336 L299 342 L301 348 L303 353 L306 357 L309 361 L322 375 L327 377 L332 379 L336 380 L341 381 L360 382 L365 381 L372 379 L377 377 L382 374 L378 375 L373 377 L369 378 L361 380 L342 381 L337 380 L333 379 L330 378 L328 377 L326 376 L324 375 L322 374 L319 373 L321 372 L319 371 L316 371 L314 370 L312 368 L310 366 L308 364 L307 362 L305 360 L304 358 L303 356 L302 353 L301 350 L300 347 L299 344 L298 338 L297 326 L298 320 L299 316 L301 312 L301 309 L302 306 L304 303 L305 300 L306 297 L309 293 L308 292 L312 289 L313 286 L314 283 L317 281 L318 278 L314 279 L318 277 L313 278 L309 278 L313 276 L311 276 L317 369 L318 370 L359 380 L365 379 L372 377 L377 375 L383 372 L387 372 L384 371 L392 369 L389 368 L394 367 L392 366 L398 364 L396 363 L400 362 L398 361 L402 360 L404 364 L400 369 L395 376 L383 389 L376 391 L380 390 L384 387 L385 384 L390 381 L391 378 L395 375 L394 374 L398 371 L397 370 L401 367 L402 364 L404 361 L407 358 L400 359 L407 357 L404 356 L406 354 L409 353 L406 353 L410 350 L406 351 L410 349 L408 348 L407 349 L305 385 L306 386 L354 397 L360 396 L368 394 L374 392 L315 228 L314 226 Z" fill="currentColor" stroke="none"/>
  <path d="M356 236 L358 238 L335 261 L327 270 L323 275 L322 273 L318 272 L321 271 L319 270 L318 269 L323 267 L321 266 L325 265 L323 264 L327 263 L325 262 L330 261 L327 260 L332 259 L335 260 L326 270 L327 267 L331 264 L335 259 L339 256 L338 254 L334 257 L330 258 L335 255 L332 256 L337 254 L342 253 L338 252 L342 250 L344 251 L347 248 L345 247 L341 250 L344 247 L350 245 L347 244 L351 242 L358 237 L352 241 L355 237 Z" fill="currentColor" stroke="none"/>
  <path d="M426 459 L427 517 L428 526 L435 528 L430 527 L426 528 L428 527 L426 526 L427 519 L426 460 L433 460 L435 484 L437 487 L435 486 L434 462 L435 459 L428 459 L437 485 L439 482 L443 482 L458 480 L463 483 L472 491 L472 494 L473 528 L465 528 L472 527 L472 496 L471 492 L470 490 L469 489 L470 486 L467 485 L465 483 L463 482 L459 480 L447 479 L440 481 L446 479 L466 526 L465 524 L466 521 L465 519 L466 516 L465 514 L466 511 L465 509 L466 506 L465 504 L466 501 L464 499 L466 498 L464 497 L463 495 L465 494 L462 493 L464 492 L461 491 L463 490 L460 490 L461 488 L457 488 L459 487 L454 487 L457 486 L455 485 L448 486 L443 488 L438 492 L435 497 L435 526 L434 497 L435 494 L438 491 L442 488 L438 489 L444 487 L454 485 L446 485 L443 486 Z" fill="currentColor" stroke="none"/>
  <path d="M46 463 L47 466 L44 471 L43 475 L40 480 L39 484 L37 489 L34 494 L33 498 L30 503 L29 507 L26 512 L24 518 L21 523 L20 526 L33 528 L22 527 L18 528 L20 527 L18 526 L20 523 L21 520 L23 517 L24 514 L25 511 L27 508 L29 504 L30 501 L31 498 L33 495 L34 492 L35 489 L37 486 L38 483 L40 479 L41 476 L42 473 L44 470 L45 467 L47 463 L60 464 L65 469 L67 475 L70 480 L71 484 L74 489 L75 493 L78 498 L79 502 L82 507 L83 511 L86 516 L87 520 L90 525 L90 528 L74 528 L89 527 L88 524 L86 522 L86 519 L84 517 L83 515 L82 513 L81 511 L81 508 L79 506 L78 504 L77 502 L77 499 L75 497 L74 495 L73 493 L73 490 L71 488 L70 486 L70 483 L68 481 L67 479 L66 477 L66 474 L64 472 L63 470 L64 466 L62 467 L63 464 L48 463 L75 526 L74 524 L72 523 L74 522 L71 521 L73 520 L71 519 L72 517 L69 516 L71 515 L40 514 L37 519 L36 523 L34 526 L33 524 L35 521 L37 518 L38 515 L70 513 L38 513 Z" fill="currentColor" stroke="none"/>
  <path d="M527 464 L528 526 L535 528 L530 527 L527 527 L527 465 L533 465 L535 526 L534 467 L535 464 L529 464 Z" fill="currentColor" stroke="none"/>
  <path d="M279 467 L280 480 L278 479 L274 480 L273 489 L278 491 L280 512 L281 517 L290 528 L293 528 L300 529 L305 528 L309 526 L306 526 L301 527 L294 528 L290 527 L287 527 L285 526 L283 524 L282 521 L280 519 L280 514 L279 493 L280 490 L275 490 L272 490 L272 481 L277 479 L272 479 L288 525 L290 526 L300 527 L305 526 L309 524 L307 523 L309 522 L306 521 L308 520 L305 519 L307 518 L303 517 L298 518 L302 517 L306 516 L304 515 L299 516 L295 517 L298 516 L296 515 L293 514 L295 513 L293 512 L294 509 L293 507 L294 504 L293 502 L294 499 L293 497 L294 494 L293 492 L306 491 L294 490 L307 489 L306 487 L307 484 L306 482 L294 481 L307 480 L301 479 L295 479 L293 478 L294 475 L293 473 L294 470 L281 468 L294 467 L280 467 L279 478 Z" fill="currentColor" stroke="none"/>
  <path d="M53 477 L57 481 L58 485 L60 490 L62 495 L64 500 L65 503 L44 503 L64 502 L62 500 L62 497 L61 494 L59 492 L58 490 L58 487 L56 485 L56 482 L54 480 L52 486 L50 491 L48 496 L44 502 L45 499 L46 496 L48 493 L49 490 L50 487 L52 483 L53 480 L55 478 L52 479 Z" fill="currentColor" stroke="none"/>
  <path d="M109 478 L107 481 L97 489 L95 495 L94 501 L93 503 L94 509 L96 514 L107 527 L112 528 L121 529 L125 528 L130 525 L132 543 L135 546 L146 546 L135 545 L131 545 L131 527 L132 524 L128 525 L122 527 L113 528 L109 527 L107 526 L104 526 L101 524 L99 522 L97 520 L96 518 L95 516 L94 514 L94 511 L93 505 L92 502 L93 496 L95 492 L96 489 L97 486 L102 483 L106 480 L110 478 L121 479 L126 481 L132 486 L134 483 L130 483 L128 482 L125 480 L122 479 L111 478 L133 482 L145 480 L147 544 L146 482 L147 479 L134 479 L106 479 L102 481 L104 523 L107 525 L121 527 L125 526 L130 523 L129 523 Z" fill="currentColor" stroke="none"/>
  <path d="M236 478 L231 481 L227 482 L224 484 L224 487 L228 493 L234 491 L243 490 L251 496 L251 500 L233 500 L229 501 L222 506 L220 518 L229 528 L241 529 L245 528 L242 527 L231 528 L229 527 L225 527 L223 525 L221 523 L220 520 L219 515 L218 513 L220 509 L221 506 L222 503 L226 502 L232 500 L250 499 L250 496 L249 495 L250 492 L246 491 L244 490 L235 489 L230 491 L225 493 L224 491 L223 489 L223 486 L222 484 L227 481 L231 480 L236 479 L246 479 L250 480 L255 482 L264 491 L265 528 L252 528 L264 527 L264 494 L263 491 L264 490 L262 488 L260 486 L258 484 L256 482 L254 481 L251 480 L247 479 L238 478 L253 526 L250 524 L246 525 L253 523 L250 522 L250 521 L231 479 L227 480 L222 483 L229 491 L234 489 L232 499 L227 500 L223 502 L228 526 L241 527 Z" fill="currentColor" stroke="none"/>
  <path d="M335 478 L331 481 L327 482 L319 489 L316 494 L316 497 L315 509 L317 514 L320 518 L328 527 L332 528 L345 529 L349 528 L354 525 L350 526 L346 527 L333 528 L330 527 L328 526 L325 526 L323 523 L320 522 L319 519 L317 518 L316 516 L315 514 L315 511 L314 498 L315 494 L316 491 L319 488 L318 487 L323 484 L327 481 L331 480 L335 479 L340 479 L345 480 L351 484 L361 493 L361 496 L362 506 L323 506 L322 508 L325 513 L333 522 L346 522 L351 520 L347 520 L333 521 L330 521 L328 520 L326 518 L324 516 L323 514 L322 510 L321 507 L361 505 L361 498 L360 494 L358 491 L360 491 L358 489 L356 487 L354 485 L351 483 L348 481 L346 480 L341 479 L337 478 L321 505 L331 519 L346 520 L353 518 L355 517 L359 521 L354 523 L349 526 L348 526 L355 522 L358 519 L356 517 L354 516 L356 515 L331 479 L327 480 L323 482 L324 522 L327 525 L345 527 Z" fill="currentColor" stroke="none"/>
  <path d="M160 479 L161 514 L163 519 L172 528 L186 529 L191 526 L187 527 L175 528 L172 527 L169 527 L167 526 L165 524 L163 522 L162 519 L161 516 L160 480 L172 480 L174 508 L181 517 L188 517 L181 516 L177 516 L175 514 L174 512 L173 510 L173 482 L174 479 L162 479 L180 515 L188 515 L192 514 L190 513 L194 512 L192 511 L195 510 L193 509 L195 506 L194 504 L195 501 L194 499 L195 496 L194 494 L195 491 L194 489 L195 486 L194 484 L195 481 L207 480 L209 528 L195 528 L208 527 L208 482 L209 479 L195 479 L194 479 L196 526 L191 524 L186 527 L185 527 L192 523 L196 523 L193 522 L196 521 L170 525 L172 526 Z" fill="currentColor" stroke="none"/>
  <path d="M387 479 L385 482 L375 490 L373 495 L372 499 L371 506 L372 511 L375 516 L385 527 L390 528 L399 529 L403 528 L408 526 L404 526 L400 527 L391 528 L387 527 L385 526 L382 526 L380 525 L378 523 L376 521 L374 519 L373 517 L372 515 L371 513 L371 508 L370 500 L371 496 L373 492 L372 491 L376 488 L377 485 L382 482 L387 480 L401 480 L406 482 L415 490 L411 493 L408 493 L407 491 L409 490 L406 490 L404 489 L407 488 L405 487 L403 486 L401 485 L391 486 L385 490 L382 492 L379 497 L379 500 L378 506 L380 511 L390 522 L400 522 L405 520 L401 520 L390 521 L387 521 L385 520 L383 518 L381 516 L380 513 L378 511 L378 508 L377 501 L378 497 L379 494 L382 491 L386 488 L382 489 L388 487 L400 485 L389 485 L387 486 L388 519 L400 520 L408 518 L405 517 L411 516 L415 520 L412 523 L409 523 L412 520 L415 519 L413 519 L414 516 L408 515 L412 514 L411 490 L414 490 L413 489 L414 486 L411 485 L409 483 L407 482 L405 481 L402 480 L389 479 L384 480 L380 482 L383 524 L385 525 L399 527 L403 526 Z" fill="currentColor" stroke="none"/>
  <path d="M566 479 L562 482 L557 484 L554 486 L558 491 L555 491 L554 488 L553 486 L557 483 L562 481 L566 480 L576 480 L580 481 L592 491 L593 528 L586 528 L592 527 L592 495 L591 491 L592 490 L590 488 L588 486 L586 484 L583 482 L581 481 L577 480 L568 479 L587 526 L586 524 L581 526 L575 528 L564 529 L574 528 L578 527 L583 524 L579 525 L584 523 L587 522 L585 521 L584 521 L574 527 L565 527 L560 528 L564 527 L561 526 L559 525 L557 524 L554 524 L556 523 L553 523 L552 521 L554 520 L551 519 L553 518 L551 517 L552 514 L551 512 L553 509 L552 507 L556 506 L554 505 L558 504 L568 502 L586 501 L569 500 L561 501 L556 503 L560 501 L568 500 L586 499 L585 497 L586 494 L585 492 L584 490 L583 488 L579 488 L582 487 L580 486 L578 485 L568 486 L564 487 L559 490 L557 489 L561 488 L567 486 L577 485 L566 485 L562 486 L560 487 L562 480 L557 482 L553 484 Z" fill="currentColor" stroke="none"/>
  <path d="M332 485 L329 489 L325 492 L323 498 L324 501 L355 501 L324 500 L321 500 L322 497 L323 494 L324 491 L328 488 L326 488 L332 486 L343 486 L355 496 L355 499 L353 497 L352 494 L354 494 L352 492 L350 490 L348 488 L346 487 L344 486 L334 485 Z" fill="currentColor" stroke="none"/>
  <path d="M115 489 L114 492 L109 496 L108 500 L107 506 L116 517 L124 517 L129 514 L125 515 L116 516 L112 516 L110 514 L108 512 L107 510 L106 508 L106 501 L108 497 L110 494 L111 491 L114 491 L113 490 L116 489 L122 490 L132 498 L133 507 L131 512 L127 513 L130 512 L131 509 L132 506 L132 501 L131 498 L130 497 L131 494 L128 493 L125 491 L123 490 L117 489 L115 515 Z" fill="currentColor" stroke="none"/>
  <path d="M486 499 L487 503 L510 505 L489 504 L486 504 L486 500 L508 500 L510 503 L510 500 L488 499 Z" fill="currentColor" stroke="none"/>
  <path d="M563 505 L560 510 L559 516 L565 523 L568 523 L571 524 L576 523 L581 521 L577 521 L572 522 L565 522 L562 522 L560 521 L559 519 L558 512 L559 509 L563 506 L584 506 L586 515 L583 519 L580 519 L583 516 L585 508 L586 505 L565 505 L563 520 L565 521 L576 521 Z" fill="currentColor" stroke="none"/>
  <path d="M237 506 L236 509 L233 512 L233 515 L238 520 L242 520 L246 519 L243 518 L238 519 L234 519 L232 517 L232 512 L233 509 L233 508 L238 506 L249 507 L252 510 L251 515 L247 516 L250 515 L251 512 L252 508 L250 507 L239 506 L241 518 L242 518 Z" fill="currentColor" stroke="none"/>
</svg>